<svg class="animated" id="freepik_stories-pediatrician" xmlns="http://www.w3.org/2000/svg" viewBox="0 0 500 500" version="1.1" xmlns:xlink="http://www.w3.org/1999/xlink" xmlns:svgjs="http://svgjs.com/svgjs"><style>svg#freepik_stories-pediatrician:not(.animated) .animable {opacity: 0;}svg#freepik_stories-pediatrician.animated #freepik--character-2--inject-31 {animation: 0.5s 1 forwards cubic-bezier(.36,-0.01,.5,1.38) slideUp;animation-delay: 0s;}svg#freepik_stories-pediatrician.animated #freepik--character-1--inject-31 {animation: 0.5s 1 forwards cubic-bezier(.36,-0.01,.5,1.38) slideLeft,3s Infinite  linear wind;animation-delay: 0s,0.5s;}            @keyframes slideUp {                0% {                    opacity: 0;                    transform: translateY(30px);                }                100% {                    opacity: 1;                    transform: inherit;                }            }                    @keyframes slideLeft {                0% {                    opacity: 0;                    transform: translateX(-30px);                }                100% {                    opacity: 1;                    transform: translateX(0);                }            }                    @keyframes wind {                0% {                    transform: rotate( 0deg );                }                25% {                    transform: rotate( 1deg );                }                75% {                    transform: rotate( -1deg );                }            }        </style><g id="freepik--background-complete--inject-31" class="animable" style="transform-origin: 250px 228.23px;"><rect y="382.4" width="500" height="0.25" style="fill: rgb(235, 235, 235); transform-origin: 250px 382.525px;" id="elkrgewym4zg" class="animable"></rect><rect x="416.78" y="398.49" width="33.12" height="0.25" style="fill: rgb(235, 235, 235); transform-origin: 433.34px 398.615px;" id="elaxlb1bgj61t" class="animable"></rect><rect x="322.53" y="401.21" width="8.69" height="0.25" style="fill: rgb(235, 235, 235); transform-origin: 326.875px 401.335px;" id="el0wuwss4c547" class="animable"></rect><rect x="396.59" y="389.21" width="19.19" height="0.25" style="fill: rgb(235, 235, 235); transform-origin: 406.185px 389.335px;" id="ela2vwnflgbn" class="animable"></rect><rect x="52.46" y="390.89" width="43.19" height="0.25" style="fill: rgb(235, 235, 235); transform-origin: 74.055px 391.015px;" id="elac0ssvp1yc7" class="animable"></rect><rect x="104.56" y="390.89" width="6.33" height="0.25" style="fill: rgb(235, 235, 235); transform-origin: 107.725px 391.015px;" id="elry70jfpxul9" class="animable"></rect><rect x="131.47" y="395.11" width="93.68" height="0.25" style="fill: rgb(235, 235, 235); transform-origin: 178.31px 395.235px;" id="el83yaapdcxqv" class="animable"></rect><path d="M237,337.8H43.91a5.71,5.71,0,0,1-5.7-5.71V60.66A5.71,5.71,0,0,1,43.91,55H237a5.71,5.71,0,0,1,5.71,5.71V332.09A5.71,5.71,0,0,1,237,337.8ZM43.91,55.2a5.46,5.46,0,0,0-5.45,5.46V332.09a5.46,5.46,0,0,0,5.45,5.46H237a5.47,5.47,0,0,0,5.46-5.46V60.66A5.47,5.47,0,0,0,237,55.2Z" style="fill: rgb(235, 235, 235); transform-origin: 140.46px 196.4px;" id="elyixyurcoap" class="animable"></path><path d="M453.31,337.8H260.21a5.72,5.72,0,0,1-5.71-5.71V60.66A5.72,5.72,0,0,1,260.21,55h193.1A5.71,5.71,0,0,1,459,60.66V332.09A5.71,5.71,0,0,1,453.31,337.8ZM260.21,55.2a5.47,5.47,0,0,0-5.46,5.46V332.09a5.47,5.47,0,0,0,5.46,5.46h193.1a5.47,5.47,0,0,0,5.46-5.46V60.66a5.47,5.47,0,0,0-5.46-5.46Z" style="fill: rgb(235, 235, 235); transform-origin: 356.75px 196.4px;" id="elztf10mv82tc" class="animable"></path><g id="elhulrel8viys"><circle cx="313.93" cy="106.27" r="23.55" style="fill: rgb(224, 224, 224); transform-origin: 313.93px 106.27px; transform: rotate(-45deg);" class="animable"></circle></g><g id="elpqv59nrpff"><circle cx="313.93" cy="106.27" r="20.03" style="fill: rgb(240, 240, 240); transform-origin: 313.93px 106.27px; transform: rotate(-33.3deg);" class="animable"></circle></g><polyline points="314.87 92.54 314.87 106.54 324.15 101.29" style="fill: rgb(240, 240, 240); transform-origin: 319.51px 99.54px;" id="elmlr0d3xd0e" class="animable"></polyline><path d="M314.87,107.54a1,1,0,0,1-1-1v-14a1,1,0,0,1,2,0v12.28l7.79-4.4a1,1,0,0,1,1.36.37,1,1,0,0,1-.38,1.37l-9.28,5.25A1.05,1.05,0,0,1,314.87,107.54Z" style="fill: rgb(224, 224, 224); transform-origin: 319.511px 99.54px;" id="eluah3q8uia5q" class="animable"></path><rect x="82.51" y="123.6" width="138.15" height="123.66" style="fill: rgb(230, 230, 230); transform-origin: 151.585px 185.43px;" id="elz13dad0wyqb" class="animable"></rect><rect x="86.82" y="128.5" width="128.81" height="114.12" style="fill: rgb(240, 240, 240); transform-origin: 151.225px 185.56px;" id="elfe2dcgmzsti" class="animable"></rect><polygon points="128.78 128.5 105.56 242.62 93.68 242.62 116.84 128.5 128.78 128.5" style="fill: rgb(250, 250, 250); transform-origin: 111.23px 185.56px;" id="elk0c7k6kppw" class="animable"></polygon><polygon points="138.61 128.5 115.41 242.62 111.03 242.62 134.24 128.5 138.61 128.5" style="fill: rgb(250, 250, 250); transform-origin: 124.82px 185.56px;" id="el1fcd8d8wnv9" class="animable"></polygon><polygon points="190.68 158.55 173.59 242.62 169.21 242.62 190.68 137.03 190.68 158.55" style="fill: rgb(250, 250, 250); transform-origin: 179.945px 189.825px;" id="elvjwenlu7tfg" class="animable"></polygon><polygon points="177.35 128.5 189.13 128.5 166.1 242.62 154.16 242.62 177.35 128.5" style="fill: rgb(250, 250, 250); transform-origin: 171.645px 185.56px;" id="elditzxcbhljb" class="animable"></polygon><rect x="148.62" y="123.6" width="3.02" height="123.66" style="fill: rgb(230, 230, 230); transform-origin: 150.13px 185.43px;" id="elgxwx4fmax6" class="animable"></rect><rect x="361.37" y="87.57" width="66.63" height="40.93" style="fill: rgb(230, 230, 230); transform-origin: 394.685px 108.035px;" id="eluv7i1ccfvy" class="animable"></rect><rect x="366.13" y="91.3" width="57.11" height="33.46" style="fill: rgb(250, 250, 250); transform-origin: 394.685px 108.03px;" id="el7r8rozho4vd" class="animable"></rect><rect x="372.07" y="97.63" width="45.22" height="1.49" style="fill: rgb(230, 230, 230); transform-origin: 394.68px 98.375px;" id="el92n2lfhicsq" class="animable"></rect><rect x="372.07" y="102.57" width="45.22" height="1.49" style="fill: rgb(230, 230, 230); transform-origin: 394.68px 103.315px;" id="elepudb7xgt7n" class="animable"></rect><rect x="372.07" y="112.01" width="45.22" height="1.49" style="fill: rgb(230, 230, 230); transform-origin: 394.68px 112.755px;" id="eljfgt5ntorw" class="animable"></rect><rect x="372.07" y="116.95" width="45.22" height="1.49" style="fill: rgb(230, 230, 230); transform-origin: 394.68px 117.695px;" id="el5k13cdry4c5" class="animable"></rect></g><g id="freepik--Shadow--inject-31" class="animable" style="transform-origin: 250px 416.24px;"><ellipse id="freepik--path--inject-31" cx="250" cy="416.24" rx="193.89" ry="11.32" style="fill: rgb(245, 245, 245); transform-origin: 250px 416.24px;" class="animable"></ellipse></g><g id="freepik--Furniture--inject-31" class="animable" style="transform-origin: 361.26px 281.418px;"><path d="M343.69,202.87s-1.3,4.68,0,6.33c.59.74,4,1,4.87.41,1.66-1.08,1.2-5.85,1.2-5.85Z" style="fill: rgb(38, 50, 56); transform-origin: 346.465px 206.402px;" id="elrewn2r6fgg" class="animable"></path><path d="M385.86,205.22s-29.13,3.05-45.56,0a27.29,27.29,0,0,1,1.44-6.09h0a5.46,5.46,0,0,1,.46-.84,4,4,0,0,1,1.52-1.2l.44-.21a18.73,18.73,0,0,1,4.3-1.17h0s2.57-5.42,2.72-5.58c1.53-1.75,25.11-1.16,27.74,1.67.56.6,3,4.4,3,4.4s3.7-.2,4,.63C386.81,199.12,385.86,205.22,385.86,205.22Z" style="fill: rgb(0, 255, 136); transform-origin: 363.3px 197.859px;" id="elref1b07i7o" class="animable"></path><path d="M349.26,195.76a157,157,0,0,1,17.66.51s.09-4.15.24-4.69-7.92-1.26-9.34-1.23a41.52,41.52,0,0,0-6.67.37A19.2,19.2,0,0,0,349.26,195.76Z" style="fill: rgb(255, 255, 255); transform-origin: 358.211px 193.303px;" id="elgn25r78as8" class="animable"></path><path d="M370.6,206.36c0,2.23-1.34,4-3,4s-3-1.81-3-4,1.34-4,3-4S370.6,204.13,370.6,206.36Z" style="fill: rgb(38, 50, 56); transform-origin: 367.6px 206.36px;" id="eldyx7wl1mj34" class="animable"></path><g id="elvainmf02lro"><path d="M370.06,206.2c0,1.35-.81,2.44-1.8,2.44s-1.81-1.09-1.81-2.44.81-2.44,1.81-2.44S370.06,204.85,370.06,206.2Z" style="fill: rgb(255, 255, 255); opacity: 0.2; transform-origin: 368.255px 206.2px;" class="animable"></path></g><path d="M364.66,205.77c-.39.75-2.71.79-2.71.79s.12,2.28,1.54,3.28,4.13.56,4.13.56Z" style="fill: rgb(38, 50, 56); transform-origin: 364.785px 208.133px;" id="el439edq77oe5" class="animable"></path><path d="M384.4,205.72c0,2.23-1.33,4-3,4s-3-1.8-3-4,1.33-4,3-4S384.4,203.49,384.4,205.72Z" style="fill: rgb(38, 50, 56); transform-origin: 381.4px 205.72px;" id="el93l0qojevd" class="animable"></path><g id="elpeuy23naueo"><path d="M383.87,205.56c0,1.35-.81,2.44-1.81,2.44s-1.8-1.09-1.8-2.44.81-2.44,1.8-2.44S383.87,204.21,383.87,205.56Z" style="fill: rgb(255, 255, 255); opacity: 0.2; transform-origin: 382.065px 205.56px;" class="animable"></path></g><path d="M378.47,205.12c-.39.76-2.72.8-2.72.8s.12,2.28,1.55,3.28,4.12.55,4.12.55Z" style="fill: rgb(38, 50, 56); transform-origin: 378.585px 207.485px;" id="el9rcyj4r1xtl" class="animable"></path><path d="M340.59,203.37l-.86.77s.31,3.53.86,3.7,17,1.38,18.58,1.17a13.51,13.51,0,0,0,4.11-1.1c.48-.36,0-3.21,0-3.21a56.72,56.72,0,0,1-9,.87c-3.72-.08-12.21-.14-12.81-.87A6.63,6.63,0,0,1,340.59,203.37Z" style="fill: rgb(0, 255, 136); transform-origin: 351.612px 206.202px;" id="el0ln4fdfx4m" class="animable"></path><g id="el6fh7fxt6ga5"><path d="M366.88,196.53c-6.07.28-8.68,2.88-8.68,2.88s-14.07,0-14.27-.85a3.3,3.3,0,0,1,.23-1.68,18.73,18.73,0,0,1,4.3-1.17c-2,.66-2.23,1.38-2.23,1.38a6,6,0,0,1,2.43-1C353.83,195.7,366.88,196.53,366.88,196.53Z" style="fill: rgb(255, 255, 255); opacity: 0.2; transform-origin: 355.392px 197.56px;" class="animable"></path></g><path d="M368.26,196s0-3.89.31-4.16a16.49,16.49,0,0,1,4.53-.26c.45.14,1.3,4.42,1.3,4.42Z" style="fill: rgb(255, 255, 255); transform-origin: 371.33px 193.763px;" id="elto9v2906fyb" class="animable"></path><path d="M375.34,196l-1.14-4.42s4.43,0,4.78.52,2.44,4.17,2.44,4.17Z" style="fill: rgb(255, 255, 255); transform-origin: 377.81px 193.925px;" id="elmzxil5a392" class="animable"></path><g id="elwkrszqmaml"><path d="M340.59,203.37l-.86.77s.31,3.53.86,3.7,17,1.38,18.58,1.17a13.51,13.51,0,0,0,4.11-1.1c.48-.36,0-3.21,0-3.21a56.72,56.72,0,0,1-9,.87c-3.72-.08-12.21-.14-12.81-.87A6.63,6.63,0,0,1,340.59,203.37Z" style="fill: rgb(255, 255, 255); opacity: 0.7; transform-origin: 351.612px 206.202px;" class="animable"></path></g><path d="M342.58,200.7c-.05.25-.2.44-.34.41s-.21-.26-.16-.51.2-.43.34-.4S342.63,200.45,342.58,200.7Z" style="fill: rgb(255, 255, 255); transform-origin: 342.33px 200.655px;" id="eloikf21g95q" class="animable"></path><g id="eltox2sfsqr9"><polygon points="343.89 200.21 343.24 205.13 356.46 205.56 357.82 200.65 343.89 200.21" style="fill: rgb(255, 255, 255); opacity: 0.4; transform-origin: 350.53px 202.885px;" class="animable"></polygon></g><polygon points="357.18 205.38 361.8 204.94 362.77 199.02 358.98 199.38 357.18 205.38" style="fill: rgb(0, 255, 136); transform-origin: 359.975px 202.2px;" id="elcmsu82pne2e" class="animable"></polygon><g id="el10dla98mo2kd"><path d="M357.18,205.38l4.62-.44c.57-2.3,1.56-5.14,1-5.92a4.34,4.34,0,0,0-3.79.36C358.39,200.31,357.78,203,357.18,205.38Z" style="fill: rgb(255, 255, 255); opacity: 0.7; transform-origin: 360.073px 202.061px;" class="animable"></path></g><path d="M360.64,203.69a.83.83,0,1,1-.82-.82A.82.82,0,0,1,360.64,203.69Z" style="fill: rgb(255, 255, 255); transform-origin: 359.81px 203.7px;" id="elpn741nfbdr9" class="animable"></path><path d="M360.9,201.5a.47.47,0,0,1-.46.47.47.47,0,1,1,.46-.47Z" style="fill: rgb(255, 255, 255); transform-origin: 360.43px 201.5px;" id="elo1sw6sv6f3" class="animable"></path><g id="el7m0drgxqkcy"><path d="M340.76,203.69l.7,1,1.31.38c.38-2.41,1.15-5.67.66-6.21s-.72-.75-1.23-.58l-.46.84A16,16,0,0,0,340.76,203.69Z" style="fill: rgb(255, 255, 255); opacity: 0.7; transform-origin: 342.174px 201.646px;" class="animable"></path></g><path d="M342.52,203c0,.45-.26.81-.52.79s-.43-.41-.4-.86.27-.81.52-.79S342.56,202.55,342.52,203Z" style="fill: rgb(255, 255, 255); transform-origin: 342.061px 202.965px;" id="elmie1f1k5eyf" class="animable"></path><polygon points="384.62 203.69 384.93 206.2 387.05 206.2 387.25 203.76 384.62 203.69" style="fill: rgb(0, 255, 136); transform-origin: 385.935px 204.945px;" id="elwmu9727zlpa" class="animable"></polygon><g id="ele9ejhqe342n"><polygon points="384.62 203.69 384.93 206.2 387.05 206.2 387.25 203.76 384.62 203.69" style="fill: rgb(255, 255, 255); opacity: 0.7; transform-origin: 385.935px 204.945px;" class="animable"></polygon></g><polygon points="283.53 385.78 284.1 398.09 287.83 398.09 287.83 388.69 283.53 385.78" style="fill: rgb(38, 50, 56); transform-origin: 285.68px 391.935px;" id="elcfbi85al01q" class="animable"></polygon><polygon points="413.49 385.78 414.06 398.09 417.79 398.09 417.79 388.69 413.49 385.78" style="fill: rgb(38, 50, 56); transform-origin: 415.64px 391.935px;" id="elklij8aege1" class="animable"></polygon><rect x="280.81" y="209.69" width="141.11" height="179.55" style="fill: rgb(38, 50, 56); transform-origin: 351.365px 299.465px;" id="el80l8moo2t5" class="animable"></rect><g id="eldgg0incu4a"><rect x="280.81" y="209.69" width="141.11" height="179.55" style="fill: rgb(255, 255, 255); opacity: 0.6; transform-origin: 351.365px 299.465px;" class="animable"></rect></g><polygon points="431.82 385.78 432.39 398.09 436.11 398.09 436.11 388.69 431.82 385.78" style="fill: rgb(38, 50, 56); transform-origin: 433.965px 391.935px;" id="el45erajqvkrm" class="animable"></polygon><rect x="285.68" y="215.37" width="64.23" height="168.06" style="fill: rgb(38, 50, 56); transform-origin: 317.795px 299.4px;" id="elcb2k9lnlbd" class="animable"></rect><g id="elzaxjp1dhzw"><rect x="285.68" y="215.37" width="64.23" height="168.06" style="fill: rgb(255, 255, 255); opacity: 0.5; transform-origin: 317.795px 299.4px;" class="animable"></rect></g><rect x="353.56" y="215.37" width="64.23" height="168.06" style="fill: rgb(38, 50, 56); transform-origin: 385.675px 299.4px;" id="elnkz3dnow1pa" class="animable"></rect><g id="el9bm2ssbtr8h"><rect x="353.56" y="215.37" width="64.23" height="168.06" style="fill: rgb(255, 255, 255); opacity: 0.5; transform-origin: 385.675px 299.4px;" class="animable"></rect></g><path d="M341,294.14h0a1.26,1.26,0,0,0,1.35-1.17v-8.06a1.27,1.27,0,0,0-1.35-1.17h0a1.27,1.27,0,0,0-1.35,1.17V293A1.26,1.26,0,0,0,341,294.14Z" style="fill: rgb(224, 224, 224); transform-origin: 341px 288.94px;" id="elbuigs9bwu7a" class="animable"></path><path d="M362.72,294.14h0a1.26,1.26,0,0,0,1.35-1.17v-8.06a1.27,1.27,0,0,0-1.35-1.17h0a1.27,1.27,0,0,0-1.35,1.17V293A1.26,1.26,0,0,0,362.72,294.14Z" style="fill: rgb(224, 224, 224); transform-origin: 362.72px 288.94px;" id="elkf0ppdqfgjg" class="animable"></path><rect x="421.92" y="209.69" width="19.79" height="179.55" style="fill: rgb(38, 50, 56); transform-origin: 431.815px 299.465px;" id="eljjsdlwbxpr" class="animable"></rect><g id="el1qr3jm69gv"><rect x="421.92" y="209.69" width="19.79" height="179.55" style="fill: rgb(255, 255, 255); opacity: 0.4; transform-origin: 431.815px 299.465px;" class="animable"></rect></g><polygon points="422.4 206.66 422.4 209.21 390.38 209.21 390.38 206.66 398.5 203.44 414.28 203.44 422.4 206.66" style="fill: rgb(38, 50, 56); transform-origin: 406.39px 206.325px;" id="elh70c7yz71k" class="animable"></polygon><g id="el0e0ozevva0uv"><polygon points="422.4 206.66 422.4 206.68 390.38 206.68 390.38 206.66 398.5 203.44 414.28 203.44 422.4 206.66" style="fill: rgb(255, 255, 255); opacity: 0.2; transform-origin: 406.39px 205.06px;" class="animable"></polygon></g><path d="M405.74,169.2c2.39-.24,1.58-2.24,2.57-3.56s3.49-1.41,4,1.32,0,9.74-6,10-6.57-8.8-6.57-8.8S401.67,169.62,405.74,169.2Z" style="fill: rgb(0, 255, 136); transform-origin: 406.1px 170.855px;" id="el6twvwxxjbqq" class="animable"></path><g id="elxiya0as6ji"><path d="M405.74,169.2c2.39-.24,1.58-2.24,2.57-3.56s3.49-1.41,4,1.32,0,9.74-6,10-6.57-8.8-6.57-8.8S401.67,169.62,405.74,169.2Z" style="fill: rgb(255, 255, 255); opacity: 0.5; transform-origin: 406.1px 170.855px;" class="animable"></path></g><path d="M412.19,166.53s1.68.35,1.77.85-1.77.9-1.77.9-1.31-.6-1.31-.88S412.19,166.53,412.19,166.53Z" style="fill: rgb(0, 255, 136); transform-origin: 412.422px 167.405px;" id="el8ecdq21xzyv" class="animable"></path><path d="M410.24,166.73a.38.38,0,0,1-.38.38.39.39,0,1,1,0-.77A.38.38,0,0,1,410.24,166.73Z" style="fill: rgb(0, 255, 136); transform-origin: 409.824px 166.725px;" id="elyz80odkb91" class="animable"></path><path d="M417.21,205.17H395.43a2.4,2.4,0,0,1-2.39-2.39h0a2.4,2.4,0,0,1,2.39-2.39h21.78a2.4,2.4,0,0,1,2.39,2.39h0A2.4,2.4,0,0,1,417.21,205.17Z" style="fill: rgb(0, 255, 136); transform-origin: 406.32px 202.78px;" id="elwm5yjfs59fp" class="animable"></path><path d="M415.53,200.4H397.11a2.4,2.4,0,0,1-2.39-2.39h0a2.39,2.39,0,0,1,2.39-2.39h18.42a2.4,2.4,0,0,1,2.39,2.39h0A2.4,2.4,0,0,1,415.53,200.4Z" style="fill: rgb(38, 50, 56); transform-origin: 406.32px 198.01px;" id="elioqtox7p2p" class="animable"></path><path d="M413.84,195.62h-15a2.39,2.39,0,0,1-2.39-2.39h0a2.4,2.4,0,0,1,2.39-2.39h15a2.4,2.4,0,0,1,2.4,2.39h0A2.4,2.4,0,0,1,413.84,195.62Z" style="fill: rgb(0, 255, 136); transform-origin: 406.345px 193.23px;" id="elmyfkdbb40o" class="animable"></path><path d="M412.16,190.85h-11.7a2.4,2.4,0,0,1-2.39-2.39h0a2.4,2.4,0,0,1,2.39-2.39h11.7a2.39,2.39,0,0,1,2.39,2.39h0A2.4,2.4,0,0,1,412.16,190.85Z" style="fill: rgb(38, 50, 56); transform-origin: 406.31px 188.46px;" id="elg17fsb5ji19" class="animable"></path><path d="M410.48,186.07h-8.34a2.4,2.4,0,0,1-2.39-2.39h0a2.4,2.4,0,0,1,2.39-2.39h8.34a2.4,2.4,0,0,1,2.39,2.39h0A2.39,2.39,0,0,1,410.48,186.07Z" style="fill: rgb(0, 255, 136); transform-origin: 406.31px 183.68px;" id="el20tg7qa9upv" class="animable"></path><path d="M408.8,181.3h-5a2.4,2.4,0,0,1-2.39-2.39h0a2.39,2.39,0,0,1,2.39-2.39h5a2.39,2.39,0,0,1,2.39,2.39h0A2.4,2.4,0,0,1,408.8,181.3Z" style="fill: rgb(38, 50, 56); transform-origin: 406.3px 178.91px;" id="eln6ol8ytpvdo" class="animable"></path><g id="el2e9hu9jxwe7"><path d="M415.53,200.4H397.11a2.4,2.4,0,0,1-2.39-2.39h0a2.39,2.39,0,0,1,2.39-2.39h18.42a2.4,2.4,0,0,1,2.39,2.39h0A2.4,2.4,0,0,1,415.53,200.4Z" style="fill: rgb(255, 255, 255); opacity: 0.2; transform-origin: 406.32px 198.01px;" class="animable"></path></g><g id="eltza9wbk368k"><path d="M413.84,195.62h-15a2.39,2.39,0,0,1-2.39-2.39h0a2.4,2.4,0,0,1,2.39-2.39h15a2.4,2.4,0,0,1,2.4,2.39h0A2.4,2.4,0,0,1,413.84,195.62Z" style="fill: rgb(255, 255, 255); opacity: 0.2; transform-origin: 406.345px 193.23px;" class="animable"></path></g><g id="elmb3pzms7tp"><path d="M412.16,190.85h-11.7a2.4,2.4,0,0,1-2.39-2.39h0a2.4,2.4,0,0,1,2.39-2.39h11.7a2.39,2.39,0,0,1,2.39,2.39h0A2.4,2.4,0,0,1,412.16,190.85Z" style="fill: rgb(255, 255, 255); opacity: 0.4; transform-origin: 406.31px 188.46px;" class="animable"></path></g><g id="el50glnzy3lrt"><path d="M410.48,186.07h-8.34a2.4,2.4,0,0,1-2.39-2.39h0a2.4,2.4,0,0,1,2.39-2.39h8.34a2.4,2.4,0,0,1,2.39,2.39h0A2.39,2.39,0,0,1,410.48,186.07Z" style="fill: rgb(255, 255, 255); opacity: 0.4; transform-origin: 406.31px 183.68px;" class="animable"></path></g><g id="elj6h0bp45ieg"><path d="M408.8,181.3h-5a2.4,2.4,0,0,1-2.39-2.39h0a2.39,2.39,0,0,1,2.39-2.39h5a2.39,2.39,0,0,1,2.39,2.39h0A2.4,2.4,0,0,1,408.8,181.3Z" style="fill: rgb(255, 255, 255); opacity: 0.6; transform-origin: 406.3px 178.91px;" class="animable"></path></g><g id="eledfxx6n6e2e"><rect x="330.84" y="186.04" width="11.37" height="15.96" rx="2.09" style="fill: rgb(0, 255, 136); transform-origin: 336.525px 194.02px; transform: rotate(116.71deg);" class="animable"></rect></g><g id="el78i2yff8hr6"><rect x="330.84" y="186.04" width="11.37" height="15.96" rx="2.09" style="fill: rgb(255, 255, 255); opacity: 0.2; transform-origin: 336.525px 194.02px; transform: rotate(116.71deg);" class="animable"></rect></g><g id="elnftwn3xs9vo"><rect x="334.62" y="183.71" width="6.16" height="15.96" rx="2.09" style="fill: rgb(255, 255, 255); opacity: 0.2; transform-origin: 337.7px 191.69px; transform: rotate(116.71deg);" class="animable"></rect></g><path d="M343.78,192.14c.09-.17.63-1.24.71-1.41.27-.52-.53-1.45-1.76-2.07s-2.45-.7-2.71-.19c-.09.17-.63,1.25-.71,1.42-.26.51.53,1.44,1.76,2.06S343.52,192.66,343.78,192.14Z" style="fill: rgb(0, 255, 136); transform-origin: 341.901px 190.307px;" id="el3apoffk1k7t" class="animable"></path><g id="elo3v4lpur29r"><path d="M343.78,192.14c.09-.17.63-1.24.71-1.41.27-.52-.53-1.45-1.76-2.07s-2.45-.7-2.71-.19c-.09.17-.63,1.25-.71,1.42-.26.51.53,1.44,1.76,2.06S343.52,192.66,343.78,192.14Z" style="fill: rgb(255, 255, 255); opacity: 0.1; transform-origin: 341.901px 190.307px;" class="animable"></path></g><g id="elxfmcfhy58tm"><path d="M341.78,190.54c-1.23-.62-2-1.55-1.76-2.07s1.47-.43,2.71.19,2,1.55,1.76,2.07S343,191.16,341.78,190.54Z" style="fill: rgb(255, 255, 255); opacity: 0.2; transform-origin: 342.255px 189.6px;" class="animable"></path></g><path d="M338.19,189.32l.71-1.41c.26-.52-.53-1.44-1.77-2.06s-2.45-.71-2.71-.19c-.08.17-.62,1.24-.71,1.41-.26.52.53,1.44,1.77,2.07S337.93,189.84,338.19,189.32Z" style="fill: rgb(0, 255, 136); transform-origin: 336.305px 187.494px;" id="el1llr9ghuga7" class="animable"></path><g id="eljzzep9ywhc"><path d="M338.19,189.32l.71-1.41c.26-.52-.53-1.44-1.77-2.06s-2.45-.71-2.71-.19c-.08.17-.62,1.24-.71,1.41-.26.52.53,1.44,1.77,2.07S337.93,189.84,338.19,189.32Z" style="fill: rgb(255, 255, 255); opacity: 0.1; transform-origin: 336.305px 187.494px;" class="animable"></path></g><g id="elsdv5ckkhg38"><path d="M336.19,187.73c-1.24-.63-2-1.55-1.77-2.07s1.48-.44,2.71.19,2,1.54,1.77,2.06S337.42,188.35,336.19,187.73Z" style="fill: rgb(255, 255, 255); opacity: 0.2; transform-origin: 336.66px 186.785px;" class="animable"></path></g><path d="M342.14,195.4l.71-1.41c.27-.52-.53-1.45-1.76-2.07s-2.45-.71-2.71-.19c-.09.17-.63,1.25-.71,1.42-.26.51.53,1.44,1.76,2.06S341.88,195.92,342.14,195.4Z" style="fill: rgb(0, 255, 136); transform-origin: 340.261px 193.565px;" id="elf6lqtk4d74m" class="animable"></path><g id="el19lslgy03av"><path d="M342.14,195.4l.71-1.41c.27-.52-.53-1.45-1.76-2.07s-2.45-.71-2.71-.19c-.09.17-.63,1.25-.71,1.42-.26.51.53,1.44,1.76,2.06S341.88,195.92,342.14,195.4Z" style="fill: rgb(255, 255, 255); opacity: 0.1; transform-origin: 340.261px 193.565px;" class="animable"></path></g><g id="eled1dkmz8vau"><path d="M340.14,193.8c-1.23-.62-2-1.55-1.76-2.07s1.47-.43,2.71.19,2,1.55,1.76,2.07S341.38,194.42,340.14,193.8Z" style="fill: rgb(255, 255, 255); opacity: 0.2; transform-origin: 340.615px 192.86px;" class="animable"></path></g><path d="M336.55,192.58c.08-.17.62-1.24.71-1.41.26-.52-.53-1.44-1.77-2.06s-2.45-.71-2.71-.19c-.08.17-.62,1.24-.71,1.41-.26.52.53,1.44,1.77,2.07S336.29,193.1,336.55,192.58Z" style="fill: rgb(0, 255, 136); transform-origin: 334.665px 190.754px;" id="el4mouinjpv02" class="animable"></path><g id="eldo0w8keouz9"><path d="M336.55,192.58c.08-.17.62-1.24.71-1.41.26-.52-.53-1.44-1.77-2.06s-2.45-.71-2.71-.19c-.08.17-.62,1.24-.71,1.41-.26.52.53,1.44,1.77,2.07S336.29,193.1,336.55,192.58Z" style="fill: rgb(255, 255, 255); opacity: 0.1; transform-origin: 334.665px 190.754px;" class="animable"></path></g><g id="elu7skdk3t5kn"><path d="M334.55,191c-1.24-.62-2-1.54-1.77-2.06s1.48-.44,2.71.19,2,1.54,1.77,2.06S335.78,191.61,334.55,191Z" style="fill: rgb(255, 255, 255); opacity: 0.2; transform-origin: 335.02px 190.062px;" class="animable"></path></g><rect x="316.33" y="193.66" width="15.96" height="15.96" rx="2.83" style="fill: rgb(38, 50, 56); transform-origin: 324.31px 201.64px;" id="el8esaasr95rv" class="animable"></rect><g id="el5wd9dmqv5l6"><rect x="316.33" y="193.66" width="15.96" height="15.96" rx="2.83" style="fill: rgb(255, 255, 255); opacity: 0.3; transform-origin: 324.31px 201.64px;" class="animable"></rect></g><g id="elgi9ij7r3emq"><rect x="316.33" y="193.66" width="11.36" height="15.96" rx="2.83" style="fill: rgb(255, 255, 255); opacity: 0.2; transform-origin: 322.01px 201.64px;" class="animable"></rect></g><path d="M318.71,196h-1.9a2.59,2.59,0,0,0,0,5h1.9a2.58,2.58,0,0,0,0-5Z" style="fill: rgb(38, 50, 56); transform-origin: 317.775px 198.5px;" id="elm7v2xmmn9hb" class="animable"></path><g id="elpq9uu1gs7r"><path d="M318.71,196h-1.9a2.59,2.59,0,0,0,0,5h1.9a2.58,2.58,0,0,0,0-5Z" style="fill: rgb(255, 255, 255); opacity: 0.2; transform-origin: 317.775px 198.5px;" class="animable"></path></g><g id="ell0mi4ngdulp"><path d="M318.75,198.51a2,2,0,1,1-1.94-2.51A2.28,2.28,0,0,1,318.75,198.51Z" style="fill: rgb(255, 255, 255); opacity: 0.2; transform-origin: 316.79px 198px;" class="animable"></path></g><path d="M318.71,202.26h-1.9a2.59,2.59,0,0,0,0,5h1.9a2.58,2.58,0,0,0,0-5Z" style="fill: rgb(38, 50, 56); transform-origin: 317.775px 204.76px;" id="elufizzfjtpwm" class="animable"></path><g id="el5ghbtzws5j9"><path d="M318.71,202.26h-1.9a2.59,2.59,0,0,0,0,5h1.9a2.58,2.58,0,0,0,0-5Z" style="fill: rgb(255, 255, 255); opacity: 0.2; transform-origin: 317.775px 204.76px;" class="animable"></path></g><g id="elsnlacj2zxkj"><path d="M318.75,204.77a2,2,0,1,1-1.94-2.51A2.28,2.28,0,0,1,318.75,204.77Z" style="fill: rgb(255, 255, 255); opacity: 0.2; transform-origin: 316.79px 204.26px;" class="animable"></path></g><path d="M324.44,196h-1.91a2.59,2.59,0,0,0,0,5h1.91a2.59,2.59,0,0,0,0-5Z" style="fill: rgb(38, 50, 56); transform-origin: 323.485px 198.5px;" id="eln244nwg06no" class="animable"></path><g id="el3xzkmzzkggc"><path d="M324.44,196h-1.91a2.59,2.59,0,0,0,0,5h1.91a2.59,2.59,0,0,0,0-5Z" style="fill: rgb(255, 255, 255); opacity: 0.2; transform-origin: 323.485px 198.5px;" class="animable"></path></g><g id="elr5rhbncdr4b"><path d="M324.47,198.51a2,2,0,1,1-1.94-2.51A2.28,2.28,0,0,1,324.47,198.51Z" style="fill: rgb(255, 255, 255); opacity: 0.2; transform-origin: 322.51px 198px;" class="animable"></path></g><path d="M324.44,202.26h-1.91a2.59,2.59,0,0,0,0,5h1.91a2.59,2.59,0,0,0,0-5Z" style="fill: rgb(38, 50, 56); transform-origin: 323.485px 204.76px;" id="ele3d5dhr0t0l" class="animable"></path><g id="el930vst9lxuk"><path d="M324.44,202.26h-1.91a2.59,2.59,0,0,0,0,5h1.91a2.59,2.59,0,0,0,0-5Z" style="fill: rgb(255, 255, 255); opacity: 0.2; transform-origin: 323.485px 204.76px;" class="animable"></path></g><g id="elw85yebr8bz"><path d="M324.47,204.77a2,2,0,1,1-1.94-2.51A2.28,2.28,0,0,1,324.47,204.77Z" style="fill: rgb(255, 255, 255); opacity: 0.2; transform-origin: 322.51px 204.26px;" class="animable"></path></g><g id="el6oho1g1jyk7"><rect x="332.59" y="195.95" width="11.37" height="15.96" rx="2.09" style="fill: rgb(0, 255, 136); transform-origin: 338.275px 203.93px; transform: rotate(90deg);" class="animable"></rect></g><g id="elo5edaufqptp"><rect x="332.59" y="195.95" width="11.37" height="15.96" rx="2.09" style="fill: rgb(255, 255, 255); opacity: 0.6; transform-origin: 338.275px 203.93px; transform: rotate(90deg);" class="animable"></rect></g><g id="el3h5l9juyx4e"><rect x="335.2" y="193.34" width="6.16" height="15.96" rx="2.09" style="fill: rgb(255, 255, 255); opacity: 0.2; transform-origin: 338.28px 201.32px; transform: rotate(90deg);" class="animable"></rect></g><path d="M343.92,199v-1.58c0-.58-1.13-1-2.51-1s-2.51.47-2.51,1V199c0,.58,1.13,1,2.51,1S343.92,199.57,343.92,199Z" style="fill: rgb(0, 255, 136); transform-origin: 341.41px 198.21px;" id="elisrf31er65" class="animable"></path><g id="elewhtlng0d2h"><path d="M343.92,199v-1.58c0-.58-1.13-1-2.51-1s-2.51.47-2.51,1V199c0,.58,1.13,1,2.51,1S343.92,199.57,343.92,199Z" style="fill: rgb(255, 255, 255); opacity: 0.5; transform-origin: 341.41px 198.21px;" class="animable"></path></g><g id="el9fy58z9hcs"><ellipse cx="341.41" cy="197.41" rx="2.51" ry="1.05" style="fill: rgb(255, 255, 255); opacity: 0.2; transform-origin: 341.41px 197.41px;" class="animable"></ellipse></g><path d="M337.65,199v-1.58c0-.58-1.12-1-2.5-1s-2.51.47-2.51,1V199c0,.58,1.12,1,2.51,1S337.65,199.57,337.65,199Z" style="fill: rgb(0, 255, 136); transform-origin: 335.145px 198.21px;" id="el1nc7ri8klxeh" class="animable"></path><g id="elrjj99hknupj"><path d="M337.65,199v-1.58c0-.58-1.12-1-2.5-1s-2.51.47-2.51,1V199c0,.58,1.12,1,2.51,1S337.65,199.57,337.65,199Z" style="fill: rgb(255, 255, 255); opacity: 0.5; transform-origin: 335.145px 198.21px;" class="animable"></path></g><g id="elbmswp3lv7z7"><path d="M335.15,198.46c-1.39,0-2.51-.47-2.51-1.05s1.12-1,2.51-1,2.5.47,2.5,1S336.53,198.46,335.15,198.46Z" style="fill: rgb(255, 255, 255); opacity: 0.2; transform-origin: 335.145px 197.435px;" class="animable"></path></g><path d="M343.92,202.64v-1.58c0-.58-1.13-1.05-2.51-1.05s-2.51.47-2.51,1.05v1.58c0,.58,1.13,1.05,2.51,1.05S343.92,203.22,343.92,202.64Z" style="fill: rgb(0, 255, 136); transform-origin: 341.41px 201.85px;" id="elrxm8lwq4838" class="animable"></path><g id="el4a3cclnxsxx"><path d="M343.92,202.64v-1.58c0-.58-1.13-1.05-2.51-1.05s-2.51.47-2.51,1.05v1.58c0,.58,1.13,1.05,2.51,1.05S343.92,203.22,343.92,202.64Z" style="fill: rgb(255, 255, 255); opacity: 0.5; transform-origin: 341.41px 201.85px;" class="animable"></path></g><g id="eloavebdohbs"><ellipse cx="341.41" cy="201.06" rx="2.51" ry="1.05" style="fill: rgb(255, 255, 255); opacity: 0.2; transform-origin: 341.41px 201.06px;" class="animable"></ellipse></g><path d="M337.65,202.64v-1.58c0-.58-1.12-1.05-2.5-1.05s-2.51.47-2.51,1.05v1.58c0,.58,1.12,1.05,2.51,1.05S337.65,203.22,337.65,202.64Z" style="fill: rgb(0, 255, 136); transform-origin: 335.145px 201.85px;" id="elw3ruhtdygv" class="animable"></path><g id="el8krftfcmz5f"><path d="M337.65,202.64v-1.58c0-.58-1.12-1.05-2.5-1.05s-2.51.47-2.51,1.05v1.58c0,.58,1.12,1.05,2.51,1.05S337.65,203.22,337.65,202.64Z" style="fill: rgb(255, 255, 255); opacity: 0.5; transform-origin: 335.145px 201.85px;" class="animable"></path></g><g id="elmwou623kreg"><path d="M335.15,202.11c-1.39,0-2.51-.47-2.51-1.05s1.12-1.05,2.51-1.05,2.5.47,2.5,1.05S336.53,202.11,335.15,202.11Z" style="fill: rgb(255, 255, 255); opacity: 0.2; transform-origin: 335.145px 201.06px;" class="animable"></path></g></g><g id="freepik--Table--inject-31" class="animable" style="transform-origin: 306.87px 351.244px;"><rect x="208.72" y="289.18" width="196.31" height="6.76" style="fill: rgb(0, 255, 136); transform-origin: 306.875px 292.56px;" id="elcb9fopfjl04" class="animable"></rect><g id="elmswxf7kg5wg"><polygon points="405.03 295.94 208.72 295.94 208.72 289.18 405.03 289.18 405.03 295.94 405.03 295.94" style="fill: rgb(255, 255, 255); isolation: isolate; opacity: 0.6; transform-origin: 306.875px 292.56px;" class="animable"></polygon></g><g id="el6dqre3pm85n"><rect x="208.72" y="289.18" width="196.31" height="3.38" style="isolation: isolate; opacity: 0.2; transform-origin: 306.875px 290.87px;" class="animable"></rect></g><path d="M408.68,290.06H205.06a2,2,0,0,1-2.08-1.91h0a2,2,0,0,1,2.08-1.9H408.68a2,2,0,0,1,2.08,1.9h0A2,2,0,0,1,408.68,290.06Z" style="fill: rgb(0, 255, 136); transform-origin: 306.87px 288.155px;" id="elje61xqxk4k" class="animable"></path><g id="el1onela32g5ah"><path d="M408.68,290.06H205.06a2,2,0,0,1-2.08-1.91h0a2,2,0,0,1,2.08-1.9H408.68a2,2,0,0,1,2.08,1.9h0A2,2,0,0,1,408.68,290.06Z" style="fill: rgb(255, 255, 255); isolation: isolate; opacity: 0.6; transform-origin: 306.87px 288.155px;" class="animable"></path></g><rect x="208.64" y="295.95" width="9.06" height="120.29" style="fill: rgb(0, 255, 136); transform-origin: 213.17px 356.095px;" id="eljbsxhgaouv" class="animable"></rect><g id="el93z0k431jzv"><rect x="208.64" y="295.86" width="9.06" height="120.38" style="fill: rgb(255, 255, 255); opacity: 0.5; transform-origin: 213.17px 356.05px;" class="animable"></rect></g><g id="elhvkfnw9t1qv"><rect x="208.64" y="295.86" width="9.06" height="16.34" style="opacity: 0.2; transform-origin: 213.17px 304.03px;" class="animable"></rect></g><rect x="395.97" y="295.95" width="9.06" height="120.29" style="fill: rgb(0, 255, 136); transform-origin: 400.5px 356.095px;" id="el3dsqo0qtp5m" class="animable"></rect><g id="elgh629jwluor"><rect x="395.97" y="295.86" width="9.06" height="120.38" style="fill: rgb(255, 255, 255); opacity: 0.5; transform-origin: 400.5px 356.05px;" class="animable"></rect></g><g id="elwjh2oo3aail"><rect x="395.97" y="295.86" width="9.06" height="16.34" style="opacity: 0.2; transform-origin: 400.5px 304.03px;" class="animable"></rect></g><rect x="279.34" y="295.95" width="9.06" height="120.29" style="fill: rgb(0, 255, 136); transform-origin: 283.87px 356.095px;" id="el71kwshxpu1n" class="animable"></rect><g id="el700k5nforkq"><rect x="279.34" y="295.86" width="9.06" height="120.38" style="fill: rgb(255, 255, 255); opacity: 0.5; transform-origin: 283.87px 356.05px;" class="animable"></rect></g><g id="elfwjc6lumpe8"><rect x="279.34" y="295.86" width="9.06" height="23.66" style="opacity: 0.2; transform-origin: 283.87px 307.69px;" class="animable"></rect></g></g><g id="freepik--character-2--inject-31" class="animable animator-active" style="transform-origin: 279.286px 262.849px;"><g id="freepik--group--inject-31" class="animable" style="transform-origin: 279.286px 262.849px;"><polygon points="223.58 314.26 227.77 315.26 229.88 309.48 231.8 304.21 227.03 302.19 225.2 308.57 223.58 314.26" style="fill: rgb(228, 137, 123); transform-origin: 227.69px 308.725px;" id="elcr8maxx4voa" class="animable"></polygon><path d="M228.79,315c.1-.46-5.66-1.46-5.66-1.46s-4.35,2.72-7.93,2.7-2.17,2.48,1.62,3.39l9.38,2.24C228.89,322.49,227.76,319.8,228.79,315Z" style="fill: rgb(38, 50, 56); transform-origin: 220.962px 317.749px;" id="elmqtz0o806jg" class="animable"></path><path d="M219.32,314a.57.57,0,0,1,0-.64.64.64,0,0,1,.4-.31,2.4,2.4,0,0,1,1.3.17c-.4-.36-.73-.76-.68-1.06s.2-.33.49-.39a.93.93,0,0,1,.74.16c.69.5.85,1.94.86,2a.15.15,0,0,1,0,.07l0,0,0,0h0l-.05,0a10.24,10.24,0,0,1-1.84.22A1.51,1.51,0,0,1,219.32,314Zm.49-.65a.32.32,0,0,0-.21.16c-.11.21,0,.28,0,.31.21.28,1.33.22,2.25.06A3.81,3.81,0,0,0,219.81,313.35Zm1.09-1.27c-.08,0-.23.06-.25.14,0,.26.66.89,1.43,1.41a2.58,2.58,0,0,0-.68-1.45.6.6,0,0,0-.36-.12Z" style="fill: rgb(38, 50, 56); transform-origin: 220.828px 313.008px;" id="elsdsi0s2exd" class="animable"></path><polygon points="271.48 323.71 275.37 321.85 273.37 316.02 271.54 310.73 266.56 312.16 269.16 318.27 271.48 323.71" style="fill: rgb(228, 137, 123); transform-origin: 270.965px 317.22px;" id="elo0kfpqx64d" class="animable"></polygon><path d="M276,321c-.21-.42-5.32,2.44-5.32,2.44s-1.66,4.84-4.45,7.09-.13,3.29,3.38,1.61l8.7-4.17C280.79,326.76,278.21,325.38,276,321Z" style="fill: rgb(38, 50, 56); transform-origin: 272.194px 326.964px;" id="elu6y8ywl57q" class="animable"></path><path d="M268,326.19a.57.57,0,0,1-.39-.5.62.62,0,0,1,.11-.5,2.41,2.41,0,0,1,1.11-.69c-.53,0-1-.12-1.19-.39s0-.38.14-.61a.88.88,0,0,1,.67-.34c.85-.05,1.88,1,1.93,1l0,.06v.1h0l0,.05a9.71,9.71,0,0,1-1.29,1.33A1.52,1.52,0,0,1,268,326.19Zm0-.82a.32.32,0,0,0-.06.26c0,.23.13.25.17.26.34.08,1.17-.67,1.79-1.37A3.81,3.81,0,0,0,268,325.37Zm0-1.67c0,.06-.14.19-.1.26.13.23,1.08.28,2,.2a2.61,2.61,0,0,0-1.45-.7.63.63,0,0,0-.35.13Z" style="fill: rgb(38, 50, 56); transform-origin: 268.97px 324.674px;" id="el8a846gz4rsu" class="animable"></path><path d="M250.87,212.1l-4.48-4s.54-1.24-1-1.88-10.81-.1-10.81-.1,1,3.9,1.86,4.86,8,.19,8,.19l3.66,3.69Z" style="fill: rgb(235, 179, 118); transform-origin: 242.725px 210.384px;" id="eld0zagk9zkbc" class="animable"></path><path d="M245.42,214l.6.7c2.36,2.69,11.19,12.57,19.36,18.47a31.06,31.06,0,0,0,6.47,3.76l1.55-2.75,4.14-7.27c-10.05-2.54-24.22-13.85-27.56-16.59-.47-.38-.72-.6-.72-.6Z" style="fill: rgb(0, 255, 136); transform-origin: 261.48px 223.325px;" id="el8f99ybsmudn" class="animable"></path><g id="elcoj9s13kyra"><path d="M265.38,233.21a31.06,31.06,0,0,0,6.47,3.76l1.55-2.75A22.39,22.39,0,0,0,265.38,233.21Z" style="isolation: isolate; opacity: 0.2; transform-origin: 269.39px 235.072px;" class="animable"></path></g><g id="elq3r8myxuspd"><path d="M245.42,214l.6.7,4-4.38c-.47-.38-.72-.6-.72-.6Z" style="fill: rgb(255, 255, 255); opacity: 0.6; transform-origin: 247.72px 212.21px;" class="animable"></path></g><path d="M328.12,221.21l5.36-2.75s-.22-1.33,1.47-1.56,10.49,2.63,10.49,2.63-1.92,3.53-3,4.24-7.82-1.85-7.82-1.85l-4.47,2.65Z" style="fill: rgb(235, 179, 118); transform-origin: 336.78px 220.728px;" id="el41ptec74cmh" class="animable"></path><path d="M332.91,224.46l-.76.52c-2.95,2-14,9.35-23.39,13a31,31,0,0,1-7.2,2l-.82-3.05-2.16-8.08c10.36.08,26.92-7.3,30.85-9.11l.85-.4Z" style="fill: rgb(0, 255, 136); transform-origin: 315.745px 229.66px;" id="ely24jj538n1e" class="animable"></path><g id="el3lp5kslf0wb"><path d="M332.91,224.46l-.76.52-2.72-5.23.85-.4Z" style="fill: rgb(255, 255, 255); opacity: 0.6; transform-origin: 331.17px 222.165px;" class="animable"></path></g><path d="M264.53,266.57l36.9,2.22c.06-.5.13-1,.18-1.5a167,167,0,0,0,1-19.37c0-3.87-.16-7.39-.31-10.27-.26-4.84-.59-7.9-.59-7.9s-5.1-2.95-16.33-3.25a38.09,38.09,0,0,0-9.87.86,6.18,6.18,0,0,0-4.72,6.08c.07,8.62-3.17,21.93-5,28.76C265,264.89,264.53,266.57,264.53,266.57Z" style="fill: rgb(0, 255, 136); transform-origin: 283.572px 247.627px;" id="el1qn6ckucad1h" class="animable"></path><g id="elajezvmcf4w6"><path d="M302.57,247.92c0-3.87-.06-5.17-.21-8-.71-.28-1.59-2.7-2.43-2.77C299.93,237.1,298.66,244.45,302.57,247.92Z" style="isolation: isolate; opacity: 0.2; transform-origin: 301.152px 242.535px;" class="animable"></path></g><g id="elqciev4g1xu"><path d="M293.17,228.24s-1.75-1.84-7.07-1.12a40.43,40.43,0,0,0-7.4,1.48s-.95,4.25,3.85,5.3S294.37,229.43,293.17,228.24Z" style="fill: rgb(255, 255, 255); opacity: 0.6; transform-origin: 285.965px 230.493px;" class="animable"></path></g><g id="elrk7hs0hz5k"><path d="M264.53,266.57l36.9,2.22c.06-.5.13-1,.18-1.5l-35.86-5.09C265,264.89,264.53,266.57,264.53,266.57Z" style="fill: rgb(255, 255, 255); opacity: 0.6; transform-origin: 283.07px 265.495px;" class="animable"></path></g><g id="el9fqrgj7d72h"><path d="M277.12,242c0-3.36.41-7.88,2.11-7.75s1.65,4.19,1.31,7.48a18,18,0,0,1,3.66.8c.06-3.32.46-7.55,2.1-7.43,2,.15,1.58,5.63,1.13,9,7.17,4.93,4.15,15.13-6.84,13.39C268.54,255.57,270.56,244.17,277.12,242Z" style="fill: rgb(255, 255, 255); opacity: 0.4; transform-origin: 281.591px 245.967px;" class="animable"></path></g><g id="el6jushqk76zr"><path d="M279.68,241.53s.38-4.85-.48-5-1,5.11-1,5.11Z" style="isolation: isolate; opacity: 0.2; transform-origin: 278.982px 239.083px;" class="animable"></path></g><g id="el7nwzl3azxyc"><path d="M285.09,242.56s.14-5.33,1-5.46.3,6.33.3,6.33Z" style="isolation: isolate; opacity: 0.2; transform-origin: 285.83px 240.264px;" class="animable"></path></g><g id="elg8xq3p8xcg6"><path d="M277,246.8a.73.73,0,1,0,.66-.8A.73.73,0,0,0,277,246.8Z" style="isolation: isolate; opacity: 0.2; transform-origin: 277.726px 246.727px;" class="animable"></path></g><g id="eldzs985xc8up"><path d="M284.27,248.08a.67.67,0,0,0,.73.6.67.67,0,1,0-.13-1.33A.66.66,0,0,0,284.27,248.08Z" style="isolation: isolate; opacity: 0.2; transform-origin: 284.96px 248.012px;" class="animable"></path></g><g id="elsrnk7ufbci"><polygon points="281.82 248.98 280.73 248.66 281.05 249.9 281.82 248.98" style="isolation: isolate; opacity: 0.2; transform-origin: 281.275px 249.28px;" class="animable"></polygon></g><path d="M281.29,224a5.08,5.08,0,0,1-.51,3.89,7,7,0,0,1-.4.6,7,7,0,0,1-.75.83,4,4,0,0,0,2.93,3.52c5.86,1.31,9.38-3.75,9.38-3.75a9.45,9.45,0,0,1-1.53-7.58,12.76,12.76,0,0,1,1.47-3.79l-8.41,2.14-3.82,1A8.37,8.37,0,0,1,281.29,224Z" style="fill: rgb(235, 179, 118); transform-origin: 285.785px 225.388px;" id="elak3nl00cs4q" class="animable"></path><g id="elxm6luaazk1p"><path d="M281.29,224a5.08,5.08,0,0,1-.51,3.89,7,7,0,0,1-.4.6c4.66-.33,8.21-4.37,10-7a12.76,12.76,0,0,1,1.47-3.79l-8.41,2.14-3.82,1A8.37,8.37,0,0,1,281.29,224Z" style="isolation: isolate; opacity: 0.2; transform-origin: 285.735px 223.095px;" class="animable"></path></g><path d="M282.21,195s-10.47,4.63-3.13,14.86C287.38,221.36,282.21,195,282.21,195Z" style="fill: rgb(38, 50, 56); transform-origin: 280.135px 203.882px;" id="elkk3cno0369" class="animable"></path><path d="M299.6,212.32c-2.3,6.44-8,12.68-13.77,12.14-10.5-1-13.88-4-12.9-11.73.84-7,6.16-16.86,15-16.5S302.81,203.39,299.6,212.32Z" style="fill: rgb(235, 179, 118); transform-origin: 286.621px 210.357px;" id="elqpzgg2n1rf" class="animable"></path><path d="M280,199.05a18.91,18.91,0,0,0,9.53,3.29s3.81,1.77,1.68,6,2.42,8.18.95,14.19c0,0,6.43,1,11.05-11.8,3.36-9.32-3.87-15.32-12.4-17.53C283.66,191.39,277.21,195.1,280,199.05Z" style="fill: rgb(38, 50, 56); transform-origin: 291.693px 207.638px;" id="eltksw0wt1u4k" class="animable"></path><path d="M284.07,210c-.27.82-.93,1.36-1.47,1.17s-.75-1-.49-1.81.92-1.35,1.47-1.18S284.33,209.19,284.07,210Z" style="fill: rgb(38, 50, 56); transform-origin: 283.091px 209.678px;" id="eld0hxusqex2w" class="animable"></path><path d="M277.57,207.56c-.25.79-.89,1.3-1.4,1.13s-.73-.95-.47-1.74.88-1.29,1.4-1.13S277.82,206.77,277.57,207.56Z" style="fill: rgb(38, 50, 56); transform-origin: 276.634px 207.256px;" id="elrktnaolgb4" class="animable"></path><path d="M283,205.1a.48.48,0,0,1-.07-.23.4.4,0,0,1,.44-.34,3.8,3.8,0,0,1,3,2,.38.38,0,0,1-.18.52h0a.42.42,0,0,1-.52-.18h0a3,3,0,0,0-2.41-1.51A.47.47,0,0,1,283,205.1Z" style="fill: rgb(38, 50, 56); transform-origin: 284.671px 205.804px;" id="elm805le0yf3g" class="animable"></path><path d="M276.51,203.37a.46.46,0,0,1-.17-.17.41.41,0,0,1,.23-.51,3.85,3.85,0,0,1,3.55.29.39.39,0,0,1,.09.55h0a.39.39,0,0,1-.54.09h0a3.07,3.07,0,0,0-2.84-.18A.45.45,0,0,1,276.51,203.37Z" style="fill: rgb(38, 50, 56); transform-origin: 278.302px 203.039px;" id="el5j0q7lz4mda" class="animable"></path><path d="M278.55,208.93l-.27,3.79a4.63,4.63,0,0,1-2.58-1A11,11,0,0,0,278.55,208.93Z" style="fill: rgb(213, 135, 69); transform-origin: 277.125px 210.825px;" id="elcfok5yugsza" class="animable"></path><path d="M291.08,214.23s2.94-3.5,4.63-1.61-.72,8.47-3.8,7.54S289,216,291.08,214.23Z" style="fill: rgb(235, 179, 118); transform-origin: 292.91px 216.155px;" id="elxcgh99j098i" class="animable"></path><path d="M277.29,215.1a22.36,22.36,0,0,1,.65,3.08l.55,0c2.52,0,3.7-.77,4.24-1.68a3.48,3.48,0,0,0,.37-2.36,11.72,11.72,0,0,1-5,.94C277.62,215.11,277.29,215.1,277.29,215.1Z" style="fill: rgb(38, 50, 56); transform-origin: 280.228px 216.16px;" id="elti8jzc23kgg" class="animable"></path><path d="M278.15,215.1l.21.9c2.37,0,4-.26,4.8-1a3.29,3.29,0,0,0-.06-.88A11.72,11.72,0,0,1,278.15,215.1Z" style="fill: rgb(255, 255, 255); transform-origin: 280.659px 215.06px;" id="ele63dhjof65r" class="animable"></path><path d="M278.49,218.2c2.52,0,3.7-.77,4.24-1.68a7.9,7.9,0,0,0-2.8.5A3,3,0,0,0,278.49,218.2Z" style="fill: rgb(222, 87, 83); transform-origin: 280.61px 217.36px;" id="elw7af8an9up8" class="animable"></path><path d="M282.05,196.06c-3.82-.15-3.84,4.55.45,6.39l-.89-1.64s3,3.12,6.43,2.66a3.77,3.77,0,0,1-1.73-3.12A4.61,4.61,0,0,0,282.05,196.06Z" style="fill: rgb(38, 50, 56); transform-origin: 283.636px 199.786px;" id="elr7edo0easu" class="animable"></path><path d="M224,310.3l5.07,3.16s6.53-12.26,11.57-20.95c.1-.18.2-.37.31-.55,3.65-6.3,14.32-5.61,14.32-5.61L270,320.79l5-1.67-3.61-30s20.56-.11,27-3,3.08-17.26,3.08-17.26c-13.44-2.63-35.91-5.74-35.91-5.74-11,.22-25.39,5.28-29.89,12.56C229.54,285.46,224,310.3,224,310.3Z" style="fill: rgb(38, 50, 56); transform-origin: 263.173px 291.955px;" id="elc25ehwec92r" class="animable"></path><g id="eliqvrb3t85c"><path d="M240.59,292.51c.1-.18.2-.37.31-.55,3.65-6.3,14.32-5.61,14.32-5.61s-2.52-7.33-.63-12.27,21-7.16,21-7.16S258,266.61,249.24,271C243.08,274.12,241.17,285.87,240.59,292.51Z" style="isolation: isolate; opacity: 0.2; transform-origin: 258.09px 279.713px;" class="animable"></path></g></g></g><g id="freepik--Plant--inject-31" class="animable" style="transform-origin: 93.7001px 357.357px;"><path d="M86,324.43c.21,1.47-3.77,2.43-7,3,.26,2.67,2,5.36,4.49,7.88,3.09-1.74,7.49-4,8.3-3.47s-3.62,3.53-6.44,5.24a57.06,57.06,0,0,0,6.39,4.84c1.38-1.29,3-2.42,4-1.81s.73,2.63.24,4.42c3.36,2,5.87,3.15,5.87,3.15a67.5,67.5,0,0,0,2.24-9.53c-.17-.34-.34-.68-.49-1-.54-1.25,0-1.79.88-2a32.91,32.91,0,0,0,0-6.87c-3.79-.79-8.41-2.27-6.68-4.55,1-1.37,3-1.53,4.94-1.18a8.61,8.61,0,0,0-.94-1.28c-6.92-7.62-11.74,0-11.74,0-4-3.35-9.66-2.44-10.88,2.79C81.38,323.47,85.69,322.61,86,324.43Z" style="fill: rgb(0, 255, 136); transform-origin: 91.8299px 332.782px;" id="el1kdyzugxqw2" class="animable"></path><g id="elihnv10wbbv"><path d="M86,324.43c.21,1.47-3.77,2.43-7,3,.26,2.67,2,5.36,4.49,7.88,3.09-1.74,7.49-4,8.3-3.47s-3.62,3.53-6.44,5.24a57.06,57.06,0,0,0,6.39,4.84c1.38-1.29,3-2.42,4-1.81s.73,2.63.24,4.42c3.36,2,5.87,3.15,5.87,3.15a67.5,67.5,0,0,0,2.24-9.53c-.17-.34-.34-.68-.49-1-.54-1.25,0-1.79.88-2a32.91,32.91,0,0,0,0-6.87c-3.79-.79-8.41-2.27-6.68-4.55,1-1.37,3-1.53,4.94-1.18a8.61,8.61,0,0,0-.94-1.28c-6.92-7.62-11.74,0-11.74,0-4-3.35-9.66-2.44-10.88,2.79C81.38,323.47,85.69,322.61,86,324.43Z" style="fill: rgb(255, 255, 255); isolation: isolate; opacity: 0.3; transform-origin: 91.8299px 332.782px;" class="animable"></path></g><path d="M94.58,380.41l-1-.08c0-.51,4.1-51.52-7.35-56.33a3.88,3.88,0,0,0-3.47.08c-4.14,2.16-6.12,11.09-6.14,11.18l-1-.22c.09-.38,2.11-9.47,6.66-11.84a4.88,4.88,0,0,1,4.32-.12C98.73,328.16,94.76,378.28,94.58,380.41Z" style="fill: rgb(0, 255, 136); transform-origin: 85.4812px 351.522px;" id="el3dzmtu0yzt9" class="animable"></path><path d="M96,379.31c-.2-2.3-4.87-56.27,3.87-62,2.09-1.37,4-1.67,5.54-.86,4.13,2.08,4.68,10.91,4.7,11.28l-1,.06c0-.09-.53-8.63-4.15-10.45-1.24-.63-2.77-.36-4.55.81-8.24,5.4-3.46,60.51-3.41,61.07Z" style="fill: rgb(0, 255, 136); transform-origin: 102.343px 347.657px;" id="eld36ehlv0iy5" class="animable"></path><path d="M97.34,383.67c-.07-1.76-1.51-43.07,6.45-46.69a5.59,5.59,0,0,1,4.73,0c5.46,2.4,8.83,12.57,9,13l-.95.31c0-.1-3.37-10.18-8.42-12.4a4.56,4.56,0,0,0-3.92,0c-6.1,2.78-6.3,34-5.86,45.74Z" style="fill: rgb(0, 255, 136); transform-origin: 107.358px 360.063px;" id="elt6zqz33olx" class="animable"></path><path d="M95.31,381.78l-1-.11c1.4-12.3,4.08-45.06-.3-49a1.71,1.71,0,0,0-1.79-.56c-2.93,1.13-4.72,11.79-5.16,15.8l-1-.11c.17-1.54,1.77-15.07,5.8-16.62a2.68,2.68,0,0,1,2.82.74C100.35,337,95.52,380,95.31,381.78Z" style="fill: rgb(0, 255, 136); transform-origin: 91.7437px 356.413px;" id="eljzbl2ptrch" class="animable"></path><polygon points="78.63 358.47 114.55 358.47 111.55 398.71 81.63 398.71 78.63 358.47" style="fill: rgb(38, 50, 56); transform-origin: 96.59px 378.59px;" id="eleoajuqejtc7" class="animable"></polygon><path d="M83.52,343.7c-.38,1-3.17.21-5.36-.57-.75,1.74-.58,4,.07,6.41,2.5,0,6,.07,6.31.7s-3.44.93-5.77,1a40.05,40.05,0,0,0,2.28,5.18c1.3-.32,2.68-.47,3.07.24s-.46,1.88-1.37,2.81c1.4,2.35,2.54,3.95,2.54,3.95a48.12,48.12,0,0,0,4.65-5.11c0-.26,0-.53,0-.8.09-1,.6-1.11,1.21-.91a23.63,23.63,0,0,0,2.39-4.21c-2.07-1.8-4.41-4.29-2.56-5.1,1.11-.49,2.34.07,3.45,1a5.81,5.81,0,0,0-.14-1.11c-1.65-7.07-7.24-4-7.24-4-1.33-3.45-5.12-4.82-7.67-2C81,341.54,84,342.49,83.52,343.7Z" style="fill: rgb(0, 255, 136); transform-origin: 86.0481px 351.542px;" id="elh64n242xpm" class="animable"></path><g id="elzgkl6r7kvfe"><path d="M83.52,343.7c-.38,1-3.17.21-5.36-.57-.75,1.74-.58,4,.07,6.41,2.5,0,6,.07,6.31.7s-3.44.93-5.77,1a40.05,40.05,0,0,0,2.28,5.18c1.3-.32,2.68-.47,3.07.24s-.46,1.88-1.37,2.81c1.4,2.35,2.54,3.95,2.54,3.95a48.12,48.12,0,0,0,4.65-5.11c0-.26,0-.53,0-.8.09-1,.6-1.11,1.21-.91a23.63,23.63,0,0,0,2.39-4.21c-2.07-1.8-4.41-4.29-2.56-5.1,1.11-.49,2.34.07,3.45,1a5.81,5.81,0,0,0-.14-1.11c-1.65-7.07-7.24-4-7.24-4-1.33-3.45-5.12-4.82-7.67-2C81,341.54,84,342.49,83.52,343.7Z" style="fill: rgb(255, 255, 255); isolation: isolate; opacity: 0.3; transform-origin: 86.0481px 351.542px;" class="animable"></path></g><path d="M110.19,348.48a14,14,0,0,0-3.28.69,7.36,7.36,0,0,1-.48-2.37c-.23-7.25,5-4.2,7.7-6.32a5.86,5.86,0,0,1,4.58-1.44,11,11,0,0,0-.62,1.24,1.15,1.15,0,0,0,.88,1.55,3.29,3.29,0,0,0,2-.24,3.34,3.34,0,0,0,.53-.37,10,10,0,0,1,1,2.43,13.43,13.43,0,0,1,.47,3.1,10.37,10.37,0,0,0-1.21.34,1.12,1.12,0,0,0-.45,1.72,5.11,5.11,0,0,0,1.49,1.05,17.18,17.18,0,0,1-.91,3.4l-.37.05a7.44,7.44,0,0,0-.78.2,3.26,3.26,0,0,0-.44.15,1.17,1.17,0,0,0-.67.88,1.13,1.13,0,0,0,.42,1,4.34,4.34,0,0,0,.54.33,8,8,0,0,1-2.87,2.9,30.08,30.08,0,0,1-3-1.62c.22-.29.43-.58.63-.88a1.64,1.64,0,0,0,.31-1.13,1.54,1.54,0,0,0-.59-1,1.56,1.56,0,0,0-2.16.28c-.24.36-.5.7-.76,1a18.83,18.83,0,0,1-3.68-3.57l.11,0a10.87,10.87,0,0,1,2-.34,1.54,1.54,0,1,0-.4-3.06Z" style="fill: rgb(0, 255, 136); transform-origin: 114.696px 348.885px;" id="el1t2zfwwp1z8" class="animable"></path><g id="elvea2ed7tpp"><path d="M110.19,348.48a14,14,0,0,0-3.28.69,7.36,7.36,0,0,1-.48-2.37c-.23-7.25,5-4.2,7.7-6.32a5.86,5.86,0,0,1,4.58-1.44,11,11,0,0,0-.62,1.24,1.15,1.15,0,0,0,.88,1.55,3.29,3.29,0,0,0,2-.24,3.34,3.34,0,0,0,.53-.37,10,10,0,0,1,1,2.43,13.43,13.43,0,0,1,.47,3.1,10.37,10.37,0,0,0-1.21.34,1.12,1.12,0,0,0-.45,1.72,5.11,5.11,0,0,0,1.49,1.05,17.18,17.18,0,0,1-.91,3.4l-.37.05a7.44,7.44,0,0,0-.78.2,3.26,3.26,0,0,0-.44.15,1.17,1.17,0,0,0-.67.88,1.13,1.13,0,0,0,.42,1,4.34,4.34,0,0,0,.54.33,8,8,0,0,1-2.87,2.9,30.08,30.08,0,0,1-3-1.62c.22-.29.43-.58.63-.88a1.64,1.64,0,0,0,.31-1.13,1.54,1.54,0,0,0-.59-1,1.56,1.56,0,0,0-2.16.28c-.24.36-.5.7-.76,1a18.83,18.83,0,0,1-3.68-3.57l.11,0a10.87,10.87,0,0,1,2-.34,1.54,1.54,0,1,0-.4-3.06Z" style="fill: rgb(255, 255, 255); isolation: isolate; opacity: 0.5; transform-origin: 114.696px 348.885px;" class="animable"></path></g><path d="M112.27,323.5a9.89,9.89,0,0,1,2-1.08,5.31,5.31,0,0,0-.79-1.46c-3.06-3.91-4.45,0-6.82.06a4,4,0,0,0-3,1.26,6.74,6.74,0,0,1,.87.38.79.79,0,0,1,.22,1.2,2.33,2.33,0,0,1-1.18.76,2.09,2.09,0,0,1-.43,0,6.64,6.64,0,0,0,.54,1.71,10,10,0,0,0,1.11,1.83,7.91,7.91,0,0,1,.79-.35.76.76,0,0,1,1,.71,3.39,3.39,0,0,1-.32,1.21,12.29,12.29,0,0,0,2,1.38l.22-.13c.16-.09.33-.17.49-.24a1.21,1.21,0,0,1,.3-.11.79.79,0,0,1,.74.16.77.77,0,0,1,.24.74,2.83,2.83,0,0,1-.14.41,5.5,5.5,0,0,0,2.78.26,19.73,19.73,0,0,0,.89-2.19c-.24-.05-.48-.11-.71-.18a1.17,1.17,0,0,1-.67-.46,1.12,1.12,0,0,1-.14-.8,1.06,1.06,0,0,1,1.26-.8c.28.08.57.15.86.21a12.67,12.67,0,0,0,.36-3.49l-.07,0a7.51,7.51,0,0,0-1.22.72,1.05,1.05,0,0,1-1.13-1.78Z" style="fill: rgb(0, 255, 136); transform-origin: 108.944px 325.749px;" id="elc2xl248k1ol" class="animable"></path><g id="el13h4m2vxyk2"><path d="M112.27,323.5a9.89,9.89,0,0,1,2-1.08,5.31,5.31,0,0,0-.79-1.46c-3.06-3.91-4.45,0-6.82.06a4,4,0,0,0-3,1.26,6.74,6.74,0,0,1,.87.38.79.79,0,0,1,.22,1.2,2.33,2.33,0,0,1-1.18.76,2.09,2.09,0,0,1-.43,0,6.64,6.64,0,0,0,.54,1.71,10,10,0,0,0,1.11,1.83,7.91,7.91,0,0,1,.79-.35.76.76,0,0,1,1,.71,3.39,3.39,0,0,1-.32,1.21,12.29,12.29,0,0,0,2,1.38l.22-.13c.16-.09.33-.17.49-.24a1.21,1.21,0,0,1,.3-.11.79.79,0,0,1,.74.16.77.77,0,0,1,.24.74,2.83,2.83,0,0,1-.14.41,5.5,5.5,0,0,0,2.78.26,19.73,19.73,0,0,0,.89-2.19c-.24-.05-.48-.11-.71-.18a1.17,1.17,0,0,1-.67-.46,1.12,1.12,0,0,1-.14-.8,1.06,1.06,0,0,1,1.26-.8c.28.08.57.15.86.21a12.67,12.67,0,0,0,.36-3.49l-.07,0a7.51,7.51,0,0,0-1.22.72,1.05,1.05,0,0,1-1.13-1.78Z" style="fill: rgb(255, 255, 255); isolation: isolate; opacity: 0.3; transform-origin: 108.944px 325.749px;" class="animable"></path></g><path d="M83,330.75c-.21,1.47,3.77,2.44,7,3-.26,2.67-2,5.37-4.49,7.89-3.09-1.74-7.49-4-8.3-3.48s3.62,3.53,6.44,5.25a57.06,57.06,0,0,1-6.39,4.84c-1.38-1.3-3-2.43-4-1.82s-.73,2.64-.24,4.42c-3.36,2-5.87,3.15-5.87,3.15A67.5,67.5,0,0,1,65,344.45c.17-.33.34-.67.49-1,.54-1.25,0-1.78-.88-2a32.82,32.82,0,0,1,0-6.86c3.79-.8,8.41-2.27,6.68-4.55-1-1.38-2.95-1.53-4.94-1.19a8.61,8.61,0,0,1,.94-1.28c6.92-7.61,11.74,0,11.74,0,4-3.34,9.66-2.44,10.88,2.79C87.57,329.8,83.25,328.94,83,330.75Z" style="fill: rgb(0, 255, 136); transform-origin: 77.2151px 339.094px;" id="elhc1omai6juo" class="animable"></path><g id="elb418zd57gzm"><path d="M83,330.75c-.21,1.47,3.77,2.44,7,3-.26,2.67-2,5.37-4.49,7.89-3.09-1.74-7.49-4-8.3-3.48s3.62,3.53,6.44,5.25a57.06,57.06,0,0,1-6.39,4.84c-1.38-1.3-3-2.43-4-1.82s-.73,2.64-.24,4.42c-3.36,2-5.87,3.15-5.87,3.15A67.5,67.5,0,0,1,65,344.45c.17-.33.34-.67.49-1,.54-1.25,0-1.78-.88-2a32.82,32.82,0,0,1,0-6.86c3.79-.8,8.41-2.27,6.68-4.55-1-1.38-2.95-1.53-4.94-1.19a8.61,8.61,0,0,1,.94-1.28c6.92-7.61,11.74,0,11.74,0,4-3.34,9.66-2.44,10.88,2.79C87.57,329.8,83.25,328.94,83,330.75Z" style="fill: rgb(255, 255, 255); isolation: isolate; opacity: 0.5; transform-origin: 77.2151px 339.094px;" class="animable"></path></g></g><g id="freepik--character-1--inject-31" class="animable" style="transform-origin: 184.977px 283.756px;"><polygon points="132.32 252.56 115.68 373.1 206.69 364.07 169.26 252.28 132.32 252.56" style="fill: rgb(0, 255, 136); transform-origin: 161.185px 312.69px;" id="ela2ybfgusjmf" class="animable"></polygon><g id="elcmalbg8f1cb"><polygon points="132.32 252.56 115.68 373.1 206.69 364.07 169.26 252.28 132.32 252.56" style="fill: rgb(255, 255, 255); opacity: 0.4; transform-origin: 161.185px 312.69px;" class="animable"></polygon></g><path d="M204.56,205l15.5-7.85a30.65,30.65,0,0,0,7.37-.34c4-.69,4.86-.73,4.38-3.88s.19-7.35-1-7.79-10.11,3.69-11.56,6.1l-15.09,5Z" style="fill: rgb(228, 137, 123); transform-origin: 218.045px 195.054px;" id="el49fo2wst7fp" class="animable"></path><path d="M163.41,188.45v18s3.84,1.27,8.61,2.6c5.47,1.52,12.16,3.12,15.64,2.95,6.5-.32,31.1-13.37,31.1-13.37l-2.17-7.85s-28.43,10-31.43,9.45S163.41,188.45,163.41,188.45Z" style="fill: rgb(0, 255, 136); transform-origin: 191.085px 200.231px;" id="elk9l68808uhh" class="animable"></path><g id="eljt04tie4gqe"><path d="M163.41,188.45v18s3.84,1.27,8.61,2.6c5.47,1.52,12.16,3.12,15.64,2.95,6.5-.32,31.1-13.37,31.1-13.37l-2.17-7.85s-28.43,10-31.43,9.45S163.41,188.45,163.41,188.45Z" style="fill: rgb(255, 255, 255); opacity: 0.7; transform-origin: 191.085px 200.231px;" class="animable"></path></g><g id="elylk922l0cvc"><path d="M163.41,197.22v9.24s3.84,1.27,8.61,2.6C170.26,203.7,165.87,199.33,163.41,197.22Z" style="isolation: isolate; opacity: 0.2; transform-origin: 167.715px 203.14px;" class="animable"></path></g><polygon points="157.22 407.3 151.3 404.36 154.5 395.46 157.42 387.37 165.04 389.68 160.91 399 157.22 407.3" style="fill: rgb(228, 137, 123); transform-origin: 158.17px 397.335px;" id="eljwriwp81ka" class="animable"></polygon><g id="eljes980au8kb"><polygon points="158.97 403.19 152.79 400.22 155.56 392.05 163.18 394.35 158.97 403.19" style="isolation: isolate; opacity: 0.2; transform-origin: 157.985px 397.62px;" class="animable"></polygon></g><path d="M150.38,403c.34-.64,8.11,3.85,8.11,3.85s2.45,7.47,6.68,11,.13,5-5.23,2.39l-13.26-6.57C142.87,411.78,146.86,409.71,150.38,403Z" style="fill: rgb(38, 50, 56); transform-origin: 156.026px 412.253px;" id="el7qoe6sukakl" class="animable"></path><path d="M162.5,411.18c-1.14.26-3.22-2.31-3.63-2.83a.2.2,0,0,1,0-.08h0a.22.22,0,0,1,0-.08h0a.24.24,0,0,1,0-.08h0a.35.35,0,0,1,0-.08c.08-.07,1.68-1.6,3-1.51a1.37,1.37,0,0,1,1,.54c.28.36.35.67.2.94s-1,.55-1.84.57a3.66,3.66,0,0,1,1.7,1.09,1,1,0,0,1,.16.76,1,1,0,0,1-.47.7Zm-.11-.46c.05,0,.19-.05.26-.4a.51.51,0,0,0-.09-.4c-.41-.62-1.89-1.09-2.89-1.34C160.61,409.67,161.86,410.84,162.39,410.72ZM159.62,408c1.41.14,2.87.09,3.07-.27.06-.1-.07-.3-.16-.41a.92.92,0,0,0-.68-.36,2.29,2.29,0,0,0-1.07.27A6.14,6.14,0,0,0,159.62,408Z" style="fill: rgb(0, 255, 136); transform-origin: 161.007px 408.857px;" id="el3hq73xnt35b" class="animable"></path><path d="M167.76,256.9s19.55,46.19,22.62,66.46-28.19,75.58-28.19,75.58l-9.1-5.65s15.48-56,15.48-65.09-20.14-50.84-20.14-50.84S146.49,260.54,167.76,256.9Z" style="fill: rgb(38, 50, 56); transform-origin: 169.488px 327.92px;" id="el6w56qrf51hd" class="animable"></path><g id="elwypisrlomyi"><g style="isolation: isolate; opacity: 0.1; transform-origin: 169.488px 327.92px;" class="animable"><path d="M167.76,256.9s19.55,46.19,22.62,66.46-28.19,75.58-28.19,75.58l-9.1-5.65s15.48-56,15.48-65.09-20.14-50.84-20.14-50.84S146.49,260.54,167.76,256.9Z" style="fill: rgb(255, 255, 255); transform-origin: 169.488px 327.92px;" id="elges3wce50z" class="animable"></path></g></g><polygon points="151.99 392.46 164.73 397.55 161.7 401.95 150.55 397.66 151.99 392.46" style="fill: rgb(38, 50, 56); transform-origin: 157.64px 397.205px;" id="ela1n8eb0d8x" class="animable"></polygon><path d="M165.29,236.94,133,239.73c-.76-12-1.53-19.73-8.63-41.11-.62-1.87-1.29-3.86-2-6a95.27,95.27,0,0,1,13.39-3.23,105.36,105.36,0,0,1,14.49-1.54c6.29,0,13.49.67,13.49.67s.57.37,1.21,7C165.54,201.84,166.59,214.21,165.29,236.94Z" style="fill: rgb(0, 255, 136); transform-origin: 144.141px 213.79px;" id="el60u86hkgol" class="animable"></path><g id="eljfeuxkfp09"><path d="M165.29,236.94,133,239.74a121.86,121.86,0,0,0-2.45-19.5,188.11,188.11,0,0,0-5.28-18.81c-.28-.91-.59-1.85-.91-2.81-.62-1.87-1.28-3.85-2-6a98.13,98.13,0,0,1,13.39-3.23,103.81,103.81,0,0,1,14.49-1.53c6.29-.05,13.49.67,13.49.67s.57.37,1.21,7C165.54,201.84,166.59,214.21,165.29,236.94Z" style="isolation: isolate; opacity: 0.3; transform-origin: 144.136px 213.799px;" class="animable"></path></g><path d="M147.05,195.35c-8-1-10.34-4.42-10.34-4.42,5-4.76.85-13,.85-13l9.58,1.79a29.2,29.2,0,0,0-.38,4c-.07,5.81,2.56,5.87,2.56,5.87C151,192.76,147.05,195.35,147.05,195.35Z" style="fill: rgb(228, 137, 123); transform-origin: 143.223px 186.64px;" id="el6dibe1o9c8k" class="animable"></path><g id="elpvc1rrl2n39"><path d="M147.14,179.71a29.2,29.2,0,0,0-.38,4c-4.61-1.07-9.2-5.82-9.2-5.82Z" style="isolation: isolate; opacity: 0.2; transform-origin: 142.35px 180.8px;" class="animable"></path></g><polygon points="150.93 411.4 144.32 411.4 143.23 402.19 142.25 393.74 150.1 392.46 150.54 402.49 150.93 411.4" style="fill: rgb(228, 137, 123); transform-origin: 146.59px 401.93px;" id="eltplibh2a62p" class="animable"></polygon><path d="M142.9,411c0-.73,9-.15,9-.15s5.51,5.6,10.86,6.86,2.36,4.47-3.62,4.47h-14.8C140.07,422.15,142.72,418.53,142.9,411Z" style="fill: rgb(38, 50, 56); transform-origin: 153.734px 416.406px;" id="elrl9ht25e51" class="animable"></path><g id="elknrzaywc7ye"><path d="M142.9,411c0-.73,9-.15,9-.15s5.51,5.6,10.86,6.86,2.36,4.47-3.62,4.47h-14.8C140.07,422.15,142.72,418.53,142.9,411Z" style="fill: rgb(255, 255, 255); isolation: isolate; opacity: 0.1; transform-origin: 153.734px 416.406px;" class="animable"></path></g><path d="M152.88,412l-.08-.05h0a.16.16,0,0,1,0-.07h0a.19.19,0,0,1,0-.07h0a.16.16,0,0,1,0-.1c0-.11.78-2.18,2-2.68a1.38,1.38,0,0,1,1.16,0c.41.19.61.45.59.75,0,.47-.66.94-1.39,1.33a3.75,3.75,0,0,1,2,.22,1,1,0,0,1,.48.61.86.86,0,0,1-.22.95,1.2,1.2,0,0,1-.79.22A11.08,11.08,0,0,1,152.88,412Zm.82-.15c1.32.56,3,1.06,3.38.71,0,0,.15-.12.06-.47a.54.54,0,0,0-.26-.32,2.24,2.24,0,0,0-1-.19A11.07,11.07,0,0,0,153.7,411.82Zm1.24-2.39a3.85,3.85,0,0,0-1.54,1.93c1.33-.51,2.61-1.2,2.63-1.61,0-.12-.2-.24-.32-.29a.88.88,0,0,0-.41-.1A.92.92,0,0,0,154.94,409.43Z" style="fill: rgb(0, 255, 136); transform-origin: 155.246px 411.008px;" id="ely6sjm4caqzc" class="animable"></path><g id="elo5h1ai32znk"><polygon points="150.7 405.94 143.8 407 142.57 398.45 150.42 397.12 150.7 405.94" style="isolation: isolate; opacity: 0.2; transform-origin: 146.635px 402.06px;" class="animable"></polygon></g><g id="elzpuqhxmzxr"><path d="M157.68,297.47c-4.75-10.78-9.25-20.11-9.25-20.11a17,17,0,0,1,.56-5.71,6.83,6.83,0,0,1,2.22-.93S157,279.8,157.68,297.47Z" style="isolation: isolate; opacity: 0.2; transform-origin: 153.033px 284.095px;" class="animable"></path></g><path d="M151.49,270.72l1.27,65v66.57H141.49C115,276.2,133.18,244.58,133.18,244.58l.07,0s0-.11.05-.15c4.25-9.44,32.12-2.48,32.12-2.48,2,7.83,3.29,23.73,3.29,23.73Z" style="fill: rgb(38, 50, 56); transform-origin: 147.903px 320.884px;" id="el6bm3lsspo0y" class="animable"></path><g id="el963kmm2hfmb"><path d="M151.49,270.72l1.27,65v66.57H141.49C115,276.2,133.18,244.58,133.18,244.58l.07,0s0-.11.05-.15c4.25-9.44,32.12-2.48,32.12-2.48,2,7.83,3.29,23.73,3.29,23.73Z" style="fill: rgb(255, 255, 255); isolation: isolate; opacity: 0.1; transform-origin: 147.903px 320.884px;" class="animable"></path></g><polygon points="133.2 239.71 133.2 244.44 165.47 241.96 165.47 236.38 133.2 239.71" style="fill: rgb(38, 50, 56); transform-origin: 149.335px 240.41px;" id="el20umrktnm47" class="animable"></polygon><g id="eltoxotdlz2ig"><rect x="142.46" y="237.76" width="1.6" height="8.16" style="fill: rgb(38, 50, 56); transform-origin: 143.26px 241.84px; transform: rotate(-2.92deg);" class="animable"></rect></g><g id="elcf5miwdu3xp"><rect x="151" y="237.83" width="7.08" height="5.37" style="fill: rgb(255, 255, 255); transform-origin: 154.54px 240.515px; transform: rotate(-5.12deg);" class="animable"></rect></g><g id="el4ksumnj09tk"><rect x="162.17" y="235.6" width="1.6" height="8.16" style="fill: rgb(38, 50, 56); transform-origin: 162.97px 239.68px; transform: rotate(-2.92deg);" class="animable"></rect></g><g id="elzwd7e86gx38"><rect x="142.46" y="237.76" width="1.6" height="8.16" style="fill: rgb(255, 255, 255); isolation: isolate; opacity: 0.2; transform-origin: 143.26px 241.84px; transform: rotate(-2.92deg);" class="animable"></rect></g><g id="el5ww46kh7txg"><rect x="162.17" y="235.6" width="1.6" height="8.16" style="fill: rgb(255, 255, 255); isolation: isolate; opacity: 0.2; transform-origin: 162.97px 239.68px; transform: rotate(-2.92deg);" class="animable"></rect></g><polygon points="140.07 400.73 153.92 398.7 152.76 404.23 141.33 405.77 140.07 400.73" style="fill: rgb(38, 50, 56); transform-origin: 146.995px 402.235px;" id="elv543647x2sd" class="animable"></polygon><polygon points="150.8 188.66 146.2 192.33 137.53 190.52 139.35 198.47 154.94 196.19 150.8 188.66" style="fill: rgb(0, 255, 136); transform-origin: 146.235px 193.565px;" id="el3gdesb0ec4s" class="animable"></polygon><g id="eluj9k90c50u"><polygon points="150.8 188.66 146.2 192.33 137.53 190.52 139.35 198.47 154.94 196.19 150.8 188.66" style="opacity: 0.3; transform-origin: 146.235px 193.565px;" class="animable"></polygon></g><polygon points="146.24 192.33 141.88 198.47 134.65 192.6 138.38 187.76 146.24 192.33" style="fill: rgb(0, 255, 136); transform-origin: 140.445px 193.115px;" id="eladogjjzusds" class="animable"></polygon><polygon points="146.24 192.33 151.32 196.5 150.25 189.97 147.32 186.23 146.24 192.33" style="fill: rgb(0, 255, 136); transform-origin: 148.78px 191.365px;" id="elhem315eziap" class="animable"></polygon><path d="M122.37,192.67l15.53-4.5,12.9,54.91-3.59,136.16-31.5-5.68c2.6-50,6.78-96.88,17-132Z" style="fill: rgb(0, 255, 136); transform-origin: 133.255px 283.705px;" id="elzxi43zrolua" class="animable"></path><g id="el4c4iqf68q44"><path d="M122.37,192.67l15.49-4.5,12.91,54.91-3.59,136.16-31.5-5.68c2.6-50,6.77-96.88,17-132Z" style="fill: rgb(255, 255, 255); opacity: 0.8; transform-origin: 133.225px 283.705px;" class="animable"></path></g><g id="el1dpv216euom"><polygon points="134.04 189.21 133.13 203.81 138.61 208.76 134.11 212.93 150.46 257.46 150.84 243.09 137.9 188.17 134.04 189.21" style="fill: rgb(255, 255, 255); opacity: 0.7; transform-origin: 141.985px 222.815px;" class="animable"></polygon></g><path d="M163.74,188.57c6.07,17,5,33.8,1.73,52.77l41.25,123.19-23,10.63c-7.75-53.72-15.17-111.63-25.46-133.63-.29-19.15.21-38.48-10.82-55.17Z" style="fill: rgb(0, 255, 136); transform-origin: 177.08px 280.76px;" id="ellm7483tbyib" class="animable"></path><g id="el0fmvdb8hhwgm"><path d="M163.74,188.57c6.07,17,5,33.8,1.73,52.77l41.25,123.19-23,10.63c-7.51-54.15-14.88-109.73-25.46-133.63-.29-19.15.21-38.48-10.82-55.17Z" style="fill: rgb(255, 255, 255); opacity: 0.8; transform-origin: 177.08px 280.76px;" class="animable"></path></g><g id="elrs86c1to0q"><path d="M147.42,186.36l3.42.46L161,199.42l-2.76,4.5,3.87,3,2.51,53.92a143.45,143.45,0,0,0-6.38-19.35C157.85,215.34,155.88,198.23,147.42,186.36Z" style="fill: rgb(255, 255, 255); opacity: 0.7; transform-origin: 156.02px 223.6px;" class="animable"></path></g><path d="M127.44,157a5.09,5.09,0,0,1,4.53-3.07h5l-3.78,9.88.22,12.38-1.67-3.77-.47,3.77s-4-8.58-4.27-11.11S126.2,160.06,127.44,157Z" style="fill: rgb(38, 50, 56); transform-origin: 131.812px 165.06px;" id="elx5gor6c5mco" class="animable"></path><path d="M142.78,151.65c8.51-.46,11.5,3.94,12.6,12.68,1.38,10.92-.62,18.84-11.39,17.08C129.36,179,128.64,152.43,142.78,151.65Z" style="fill: rgb(228, 137, 123); transform-origin: 144.175px 166.636px;" id="elcoat2smyghf" class="animable"></path><path d="M149.85,164.16a18.63,18.63,0,0,0,2.67,3.39,2.34,2.34,0,0,1-2.19,1.09Z" style="fill: rgb(162, 78, 63); transform-origin: 151.185px 166.405px;" id="elc4fiivrqtc7" class="animable"></path><path d="M144.61,163.74c0,.7-.28,1.3-.75,1.33s-.88-.5-.94-1.19.28-1.3.74-1.33S144.55,163.05,144.61,163.74Z" style="fill: rgb(46, 53, 58); transform-origin: 143.762px 163.81px;" id="elmwxz6hu5z8" class="animable"></path><path d="M143.47,162.6l1.48-.72S144.29,163.22,143.47,162.6Z" style="fill: rgb(46, 53, 58); transform-origin: 144.21px 162.322px;" id="elif2sj52cntb" class="animable"></path><path d="M153.28,162.92c.05.7-.28,1.29-.75,1.33s-.89-.5-.94-1.2.28-1.29.74-1.33S153.22,162.22,153.28,162.92Z" style="fill: rgb(46, 53, 58); transform-origin: 152.435px 162.985px;" id="elg0qhalz7s1t" class="animable"></path><path d="M152.14,161.77l1.47-.71S153,162.39,152.14,161.77Z" style="fill: rgb(46, 53, 58); transform-origin: 152.875px 161.497px;" id="eleu5hpfwn8tj" class="animable"></path><path d="M140.58,159.72a.31.31,0,0,1-.21-.07.35.35,0,0,1-.08-.5,4.75,4.75,0,0,1,3.94-1.64.37.37,0,0,1,.33.39.36.36,0,0,1-.39.33,4.11,4.11,0,0,0-3.3,1.34A.35.35,0,0,1,140.58,159.72Z" style="fill: rgb(46, 53, 58); transform-origin: 142.39px 158.609px;" id="elr3t751gwl3h" class="animable"></path><path d="M153.8,158.05a.41.41,0,0,1-.19-.05,3.56,3.56,0,0,0-3.1-.49.37.37,0,0,1-.29-.67,4.3,4.3,0,0,1,3.76.54.36.36,0,0,1-.18.67Z" style="fill: rgb(46, 53, 58); transform-origin: 152.104px 157.339px;" id="el0bxszgxvbaqk" class="animable"></path><path d="M149.28,172.05a21.72,21.72,0,0,0-.84,3l-.55,0c-2.49-.11-3.6-1-4.09-1.93a3.27,3.27,0,0,1-.33-1.48,3,3,0,0,1,.12-.87,11.69,11.69,0,0,0,4.84,1.24C149,172.05,149.28,172.05,149.28,172.05Z" style="fill: rgb(46, 53, 58); transform-origin: 146.375px 172.91px;" id="elb81qbhe2kgu" class="animable"></path><path d="M148.43,172l-.27.88c-2.35-.11-4-.51-4.69-1.25a3,3,0,0,1,.12-.87A11.69,11.69,0,0,0,148.43,172Z" style="fill: rgb(255, 255, 255); transform-origin: 145.95px 171.82px;" id="eliwf1qudtgf" class="animable"></path><path d="M147.89,175c-2.49-.11-3.6-1-4.09-1.93a8.28,8.28,0,0,1,2.74.68A3,3,0,0,1,147.89,175Z" style="fill: rgb(222, 87, 83); transform-origin: 145.845px 174.035px;" id="elr0g6v51ztrd" class="animable"></path><path d="M134.26,166.51s3.6-7.21,2.7-12.58c0,0,16.49-7.81,18.26,9.26,0,0,.81-15.29-13.84-14.83s-13.41,21.87-5.51,27.83C135.87,176.19,132,171,134.26,166.51Z" style="fill: rgb(38, 50, 56); transform-origin: 142.66px 162.27px;" id="elusz5y1xoobs" class="animable"></path><path d="M135.75,168.23a3.73,3.73,0,0,0-4.21-3.19c-2.62.43-3.58,5.91,3.05,6.85C135.54,172,136,171.08,135.75,168.23Z" style="fill: rgb(228, 137, 123); transform-origin: 132.684px 168.452px;" id="elrxt36vzmuh" class="animable"></path><path d="M132,153.93s-1.38-4.46,2.44-7.05,10.53-1.46,14.87,0S158,161.06,158,161.06a42,42,0,0,0-7.67-8.55l-12-.11L137,153.93Z" style="fill: rgb(38, 50, 56); transform-origin: 144.879px 153.196px;" id="elsukenylvtmc" class="animable"></path><path d="M126.05,158.33c-9.34-4.78-21.27,4.1-16.25,11.28.77,10.57,7.74,10.9,11.89,3.62,6-4.86,4.45-9.07,2.09-13.21-.47,1.62.57,4.39-5.46,6.6l-1.38-.86c4.2-5,6.84-3.66,9.61-2.74Z" style="fill: rgb(46, 53, 58); transform-origin: 117.581px 167.587px;" id="elauqm7k66v5c" class="animable"></path><path d="M104.87,176.48c1.75-10.84,5.51-18,12.61-19.18l2.8-.32C112.86,158.56,107.94,165.52,104.87,176.48Z" style="fill: rgb(46, 53, 58); transform-origin: 112.575px 166.73px;" id="elt4py08myt7i" class="animable"></path><path d="M109.2,175.68c-1.4-10.81,2.74-16.93,12-18.67l-4.78.5C109,160.34,107.1,166.72,109.2,175.68Z" style="fill: rgb(46, 53, 58); transform-origin: 114.799px 166.345px;" id="elbb1hjqj81zb" class="animable"></path><path d="M125.69,158.24l.44,4.71a.88.88,0,0,0,.75.31.78.78,0,0,0,.64-.43l-.33-4.67a.76.76,0,0,0-.73-.5A1,1,0,0,0,125.69,158.24Z" style="fill: rgb(0, 255, 136); transform-origin: 126.605px 160.462px;" id="el1tz3cnl8k9p" class="animable"></path><path d="M190.92,230.13a2.62,2.62,0,1,1-3,2.17A2.62,2.62,0,0,1,190.92,230.13Z" style="fill: rgb(38, 50, 56); transform-origin: 190.507px 232.717px;" id="el2s8q6sh3gss" class="animable"></path><g id="elt24objfaveq"><g style="opacity: 0.6; transform-origin: 190.507px 232.717px;" class="animable"><path d="M190.92,230.13a2.62,2.62,0,1,1-3,2.17A2.62,2.62,0,0,1,190.92,230.13Z" style="fill: rgb(255, 255, 255); transform-origin: 190.507px 232.717px;" id="elsnicek9vh1" class="animable"></path></g></g><path d="M189.51,231.65a1.46,1.46,0,1,1-1.68,1.21A1.46,1.46,0,0,1,189.51,231.65Z" style="fill: rgb(38, 50, 56); transform-origin: 189.272px 233.09px;" id="el54lnnvjlk26" class="animable"></path><g id="elacyspei1bz"><g style="opacity: 0.7; transform-origin: 189.272px 233.09px;" class="animable"><path d="M189.51,231.65a1.46,1.46,0,1,1-1.68,1.21A1.46,1.46,0,0,1,189.51,231.65Z" style="fill: rgb(255, 255, 255); transform-origin: 189.272px 233.09px;" id="eld921yv1ssn" class="animable"></path></g></g><path d="M162.36,287.09a4.33,4.33,0,0,1-2.72-1.08c-3.7-3-6.18-12.23-6.34-19-.38-12.57,1.77-26,3.49-36.79,1.33-8.31,2.48-15.47,2-19.31.2-5.51-3.79-16-7.64-26.18l-.7-1.85.93-.35.7,1.84c3.89,10.26,7.91,20.86,7.7,26.49.54,3.9-.56,10.79-2,19.51-1.72,10.75-3.86,24.13-3.48,36.61.16,6.61,2.6,15.54,6,18.28a3.16,3.16,0,0,0,2.61.81c6.39-.21,12.68-9.26,19.31-27.66,2-4,2.62-8,3.41-13.11.43-2.79.92-6,1.72-9.51l1,.21c-.79,3.53-1.28,6.68-1.71,9.45-.8,5.18-1.44,9.27-3.48,13.36-6.86,19-13.26,28-20.12,28.25A3.36,3.36,0,0,1,162.36,287.09Z" style="fill: rgb(38, 50, 56); transform-origin: 169.4px 234.813px;" id="ela4yhqsl874q" class="animable"></path><g id="el5x3yr810idt"><g style="opacity: 0.2; transform-origin: 169.4px 234.813px;" class="animable"><path d="M162.36,287.09a4.33,4.33,0,0,1-2.72-1.08c-3.7-3-6.18-12.23-6.34-19-.38-12.57,1.77-26,3.49-36.79,1.33-8.31,2.48-15.47,2-19.31.2-5.51-3.79-16-7.64-26.18l-.7-1.85.93-.35.7,1.84c3.89,10.26,7.91,20.86,7.7,26.49.54,3.9-.56,10.79-2,19.51-1.72,10.75-3.86,24.13-3.48,36.61.16,6.61,2.6,15.54,6,18.28a3.16,3.16,0,0,0,2.61.81c6.39-.21,12.68-9.26,19.31-27.66,2-4,2.62-8,3.41-13.11.43-2.79.92-6,1.72-9.51l1,.21c-.79,3.53-1.28,6.68-1.71,9.45-.8,5.18-1.44,9.27-3.48,13.36-6.86,19-13.26,28-20.12,28.25A3.36,3.36,0,0,1,162.36,287.09Z" style="fill: rgb(255, 255, 255); transform-origin: 169.4px 234.813px;" id="elp30x52omq7" class="animable"></path></g></g><path d="M133.19,169s2.25,10.52,3.92,12.23,7.69,3.87,11.66,2.29,6.81-2.48,7.94-5.37a5.93,5.93,0,0,0-.91-5.45l0-2.07s2.85,4.34,1.9,7.47-4.35,5.31-8.88,6.56-11.5-.58-12.92-3-3.94-12.35-3.94-12.35Z" style="fill: rgb(38, 50, 56); transform-origin: 144.927px 177.032px;" id="el5svso31ciss" class="animable"></path><g id="elyrne98mjpbg"><path d="M133.19,169s2.25,10.52,3.92,12.23,7.69,3.87,11.66,2.29,6.81-2.48,7.94-5.37a5.93,5.93,0,0,0-.91-5.45l0-2.07s2.85,4.34,1.9,7.47-4.35,5.31-8.88,6.56-11.5-.58-12.92-3-3.94-12.35-3.94-12.35Z" style="fill: rgb(255, 255, 255); opacity: 0.5; transform-origin: 144.927px 177.032px;" class="animable"></path></g><path d="M179.44,236.41l7.8-2.55-1.31,9.51s-5.56.14-8.62-4.2Z" style="fill: rgb(228, 137, 123); transform-origin: 182.275px 238.615px;" id="elybharq3sul8" class="animable"></path><polygon points="194.81 236.69 192.52 243.57 185.93 243.37 187.24 233.86 194.81 236.69" style="fill: rgb(228, 137, 123); transform-origin: 190.37px 238.715px;" id="elxy510x7qa4a" class="animable"></polygon><polygon points="172.73 231.94 182.28 235.49 180.23 241.27 170.52 237.55 172.73 231.94" style="fill: rgb(228, 137, 123); transform-origin: 176.4px 236.605px;" id="elqwobhhuwfo" class="animable"></polygon><path d="M131.81,194.14c-2.71-3.89-8.31-3.36-10.74-.42s-1.51,8,1.17,12.13c5.85,11.14,17.82,21.64,22.5,23.81l31.66,11.66,2.59-8.53-29.46-13.63C145.21,216.23,138.14,203.87,131.81,194.14Z" style="fill: rgb(0, 255, 136); transform-origin: 149.325px 216.344px;" id="elwcqguvwb1u" class="animable"></path><g id="elrusxcmodqyt"><path d="M131.81,194.14c-2.71-3.89-8.31-3.36-10.74-.42s-1.51,8,1.17,12.13c5.85,11.14,17.82,21.64,22.5,23.81l31.66,11.66,2.59-8.53-29.46-13.63C145.21,216.23,138.14,203.87,131.81,194.14Z" style="fill: rgb(255, 255, 255); opacity: 0.7; transform-origin: 149.325px 216.344px;" class="animable"></path></g><polygon points="240.72 182.82 241.22 184.57 244.61 182.38 243.99 177.57 243 177.85 243.2 181.73 240.72 182.82" style="fill: rgb(38, 50, 56); transform-origin: 242.665px 181.07px;" id="elkjllu0j4qag" class="animable"></polygon><g id="elcmgupwt9sx"><polygon points="240.72 182.82 241.22 184.57 244.61 182.38 243.99 177.57 243 177.85 243.2 181.73 240.72 182.82" style="fill: rgb(255, 255, 255); opacity: 0.1; transform-origin: 242.665px 181.07px;" class="animable"></polygon></g><g id="elr9vruqb7ysf"><rect x="237.91" y="159.41" width="1.26" height="2.71" style="fill: rgb(38, 50, 56); transform-origin: 238.54px 160.765px; transform: rotate(164.17deg);" class="animable"></rect></g><g id="elia6camn1808"><rect x="209.99" y="161.92" width="27.16" height="0.72" style="fill: rgb(38, 50, 56); transform-origin: 223.57px 162.28px; transform: rotate(164.16deg);" class="animable"></rect></g><g id="ellu0vx99q8ph"><rect x="238.34" y="153.88" width="27.16" height="0.72" style="fill: rgb(38, 50, 56); transform-origin: 251.92px 154.24px; transform: rotate(164.17deg);" class="animable"></rect></g><g id="el0oeihs366ta"><rect x="236.67" y="157.52" width="2.41" height="1.99" style="fill: rgb(38, 50, 56); transform-origin: 237.875px 158.515px; transform: rotate(164.17deg);" class="animable"></rect></g><g id="el7q0o4bnmc8"><rect x="236.67" y="157.52" width="2.41" height="1.99" style="fill: rgb(255, 255, 255); opacity: 0.1; transform-origin: 237.875px 158.515px; transform: rotate(164.17deg);" class="animable"></rect></g><path d="M238.6,184c.56,2,2.19,3.22,3.64,2.81s2.18-2.34,1.62-4.31-2.19-3.22-3.64-2.81S238,182,238.6,184Z" style="fill: rgb(38, 50, 56); transform-origin: 241.222px 183.251px;" id="el1z1eoq8d2te" class="animable"></path><g id="eltgif5uokksr"><path d="M239,183.73c.34,1.19,1.33,2,2.21,1.7a2,2,0,0,0,1-2.6c-.34-1.19-1.33-2-2.21-1.7A2,2,0,0,0,239,183.73Z" style="fill: rgb(255, 255, 255); opacity: 0.2; transform-origin: 240.605px 183.28px;" class="animable"></path></g><path d="M251.93,180.22c.56,2,2.19,3.23,3.65,2.82s2.18-2.34,1.62-4.31-2.19-3.23-3.64-2.81S251.38,178.26,251.93,180.22Z" style="fill: rgb(38, 50, 56); transform-origin: 254.568px 179.479px;" id="elsi8tpig0utp" class="animable"></path><g id="elree07afeff"><path d="M252.37,180c.34,1.19,1.32,2,2.2,1.7a2,2,0,0,0,1-2.6c-.33-1.19-1.32-2-2.2-1.71A2,2,0,0,0,252.37,180Z" style="fill: rgb(255, 255, 255); opacity: 0.2; transform-origin: 253.968px 179.547px;" class="animable"></path></g><path d="M225.51,187.13c.35,1.24,1.37,2,2.28,1.77a2.1,2.1,0,0,0,1-2.7c-.35-1.23-1.37-2-2.28-1.76A2.08,2.08,0,0,0,225.51,187.13Z" style="fill: rgb(38, 50, 56); transform-origin: 227.149px 186.669px;" id="elvfsr5fqw1h8" class="animable"></path><g id="el9dikfizj7t8"><path d="M225.78,187c.21.75.83,1.23,1.38,1.07a1.27,1.27,0,0,0,.62-1.63c-.22-.75-.83-1.22-1.38-1.07A1.27,1.27,0,0,0,225.78,187Z" style="fill: rgb(255, 255, 255); opacity: 0.2; transform-origin: 226.78px 186.721px;" class="animable"></path></g><path d="M210.8,179.6l17,2.56,27.75-7.88,3.84-1.08,2.07-2.83-1.44-5.1-3.3-1.49-3.43,1-4.34-4.6c-1.25-1.13-4.67-1.13-6.41-.64L236,162.42c-3.57,2-5.11,2.8-7.53,4.15-1.33,1.05-2.41,3.78-3.54,6.22l-14.84,4.46Z" style="fill: rgb(0, 255, 136); transform-origin: 235.775px 170.694px;" id="elkpfdtmxn5c" class="animable"></path><path d="M252.1,164.74a59.77,59.77,0,0,0-13,3.84c-.73-1.77-1.13-4.14,0-5.63,1.42-1.8,5.76-3.84,8.86-2.65C249.35,160.75,250.72,162.92,252.1,164.74Z" style="fill: rgb(255, 255, 255); transform-origin: 245.247px 164.263px;" id="elpcpim13fnk" class="animable"></path><path d="M237,163.41c-1.6,1.2-1.5,4.54-1,6.43l-5.41,1.54c-.23-2.25.45-4.93,2.35-6.2Z" style="fill: rgb(255, 255, 255); transform-origin: 233.774px 167.395px;" id="elezpwzg9kij" class="animable"></path><path d="M231.49,165.7l-2.7,1.26c-1.67,1.18-2.31,3.43-2.89,5.74l3.2-.91A10.14,10.14,0,0,1,231.49,165.7Z" style="fill: rgb(255, 255, 255); transform-origin: 228.695px 169.2px;" id="elvvgt4rdx459" class="animable"></path><polygon points="209.67 173.01 212.54 176.53 211.21 177.63 208.56 173.42 209.67 173.01" style="fill: rgb(0, 255, 136); transform-origin: 210.55px 175.32px;" id="elhlg4x5agem" class="animable"></polygon><path d="M211.92,177.86l-1-.3,1.29-4.26c.07-.22.3-.34.62-.25s.43.3.37.55Z" style="fill: rgb(38, 50, 56); transform-origin: 212.068px 175.44px;" id="elwew46ab0oob" class="animable"></path><g id="eldtew2tfk12"><path d="M211.92,177.86l-1-.3,1.29-4.26c.07-.22.3-.34.62-.25s.43.3.37.55Z" style="fill: rgb(255, 255, 255); opacity: 0.3; transform-origin: 212.068px 175.44px;" class="animable"></path></g><path d="M210.5,179l1,.3-1.29,4.27c-.07.22-.3.33-.61.25s-.43-.31-.37-.55Z" style="fill: rgb(38, 50, 56); transform-origin: 210.358px 181.423px;" id="eloz6fea5d78" class="animable"></path><g id="elfhupl8i72p"><path d="M210.5,179l1,.3-1.29,4.27c-.07.22-.3.33-.61.25s-.43-.31-.37-.55Z" style="fill: rgb(255, 255, 255); opacity: 0.3; transform-origin: 210.358px 181.423px;" class="animable"></path></g><path d="M212.05,178.13c.18.66-.05,1.3-.52,1.43s-1-.29-1.19-.94,0-1.3.52-1.43S211.86,177.48,212.05,178.13Z" style="fill: rgb(38, 50, 56); transform-origin: 211.19px 178.375px;" id="eljy70lk957s" class="animable"></path><g id="elsy9bxovc5o9"><path d="M212.05,178.13c.18.66-.05,1.3-.52,1.43s-1-.29-1.19-.94,0-1.3.52-1.43S211.86,177.48,212.05,178.13Z" style="fill: rgb(255, 255, 255); opacity: 0.1; transform-origin: 211.19px 178.375px;" class="animable"></path></g><path d="M263.42,166.87c-.28-1-3-4.53-8.22-2.85l-5,1.43c-2.77.77-2.45,2.14-1.88,3.89l1.3,4.61c.34,1.19,2,1.45,3.62,1L258,173.7c4.57-1.41,6.11-4.38,5.59-6.21Z" style="fill: rgb(0, 255, 136); transform-origin: 255.81px 169.365px;" id="elviv2sbuoz5" class="animable"></path><g id="el3k6x81jvn7a"><path d="M263.42,166.87c-.28-1-3-4.53-8.22-2.85l-5,1.43c-2.77.77-2.45,2.14-1.88,3.89l1.3,4.61c.34,1.19,2,1.45,3.62,1L258,173.7c4.57-1.41,6.11-4.38,5.59-6.21Z" style="fill: rgb(255, 255, 255); opacity: 0.4; transform-origin: 255.81px 169.365px;" class="animable"></path></g><polygon points="253.85 179.1 254.34 180.84 250.3 180.76 248.31 176.35 249.3 176.07 251.17 179.47 253.85 179.1" style="fill: rgb(38, 50, 56); transform-origin: 251.325px 178.455px;" id="eldh7lz6smgmu" class="animable"></polygon><g id="elwkxbfa2pv0f"><polygon points="253.85 179.1 254.34 180.84 250.3 180.76 248.31 176.35 249.3 176.07 251.17 179.47 253.85 179.1" style="fill: rgb(255, 255, 255); opacity: 0.1; transform-origin: 251.325px 178.455px;" class="animable"></polygon></g><g id="el076r91aj6dxk"><line x1="226.38" y1="186.18" x2="226.68" y2="187.23" style="fill: rgb(255, 255, 255); opacity: 0.1; transform-origin: 226.53px 186.705px;" class="animable"></line></g><polygon points="226.38 186.18 226.68 187.23 231.23 184.19 230.86 181.3 230.26 181.47 230.38 183.8 226.38 186.18" style="fill: rgb(38, 50, 56); transform-origin: 228.805px 184.265px;" id="eloizo5dvozdr" class="animable"></polygon><g id="el8pzhviqibuh"><polygon points="226.38 186.18 226.68 187.23 231.23 184.19 230.86 181.3 230.26 181.47 230.38 183.8 226.38 186.18" style="fill: rgb(255, 255, 255); opacity: 0.1; transform-origin: 228.805px 184.265px;" class="animable"></polygon></g></g><defs>     <filter id="active" height="200%">         <feMorphology in="SourceAlpha" result="DILATED" operator="dilate" radius="2"></feMorphology>                <feFlood flood-color="#32DFEC" flood-opacity="1" result="PINK"></feFlood>        <feComposite in="PINK" in2="DILATED" operator="in" result="OUTLINE"></feComposite>        <feMerge>            <feMergeNode in="OUTLINE"></feMergeNode>            <feMergeNode in="SourceGraphic"></feMergeNode>        </feMerge>    </filter>    <filter id="hover" height="200%">        <feMorphology in="SourceAlpha" result="DILATED" operator="dilate" radius="2"></feMorphology>                <feFlood flood-color="#ff0000" flood-opacity="0.5" result="PINK"></feFlood>        <feComposite in="PINK" in2="DILATED" operator="in" result="OUTLINE"></feComposite>        <feMerge>            <feMergeNode in="OUTLINE"></feMergeNode>            <feMergeNode in="SourceGraphic"></feMergeNode>        </feMerge>            <feColorMatrix type="matrix" values="0   0   0   0   0                0   1   0   0   0                0   0   0   0   0                0   0   0   1   0 "></feColorMatrix>    </filter></defs></svg>